<?xml version="1.0" encoding="utf-8"?>
<!-- Generator: Adobe Illustrator 16.0.0, SVG Export Plug-In . SVG Version: 6.00 Build 0)  -->
<!DOCTYPE svg PUBLIC "-//W3C//DTD SVG 1.1//EN" "http://www.w3.org/Graphics/SVG/1.1/DTD/svg11.dtd">
<svg version="1.1" id="Calque_1" xmlns="http://www.w3.org/2000/svg" xmlns:xlink="http://www.w3.org/1999/xlink" x="0px" y="0px"
	 width="960px" height="560px" viewBox="0 0 960 560" enable-background="new 0 0 960 560" xml:space="preserve">
<g>
	<g>
		<path fill-rule="evenodd" clip-rule="evenodd" fill="#FFFFFF" d="M451.955,243.502c-0.17-3.884-0.333-7.637-0.5-11.463
			c-0.739,0.287-1.475,0.574-2.21,0.857c-3.46,1.335-6.887,2.769-10.39,3.979c-3.54,1.223-7.129,2.326-10.746,3.298
			c-3.852,1.037-7.765,1.822-11.71,2.461c-4.74,0.767-9.507,1.206-14.295,1.371c-3.685,0.128-7.378,0.134-11.065,0.062
			c-3.327-0.065-6.664-0.18-9.973-0.508c-3.549-0.352-7.076-0.946-10.602-1.505c-0.994-0.158-1.961-0.526-2.918-0.865
			c-0.977-0.344-1.215-0.863-0.705-1.797c0.447-0.821,1.015-1.603,1.653-2.288c2.645-2.833,5.676-5.221,8.826-7.463
			c3.687-2.625,7.505-5.055,11.49-7.19c3.981-2.132,8.03-4.153,12.138-6.026c3.276-1.494,6.666-2.748,10.042-4.003
			c3.083-1.147,6.192-2.242,9.338-3.199c2.907-0.882,5.867-1.597,8.825-2.3c2.449-0.582,4.915-1.119,7.397-1.532
			c2.967-0.494,5.959-0.835,8.94-1.24c1.283-0.174,2.565-0.361,3.851-0.504c1.6-0.179,3.203-0.323,4.805-0.477
			c1.778-0.172,3.557-0.331,5.333-0.513c0.471-0.048,0.822-0.286,1.101-0.708c1.501-2.278,3.506-4.098,5.477-5.944
			c2.975-2.786,6.167-5.31,9.496-7.651c2.146-1.51,4.376-2.907,6.617-4.275c1.761-1.076,3.578-2.067,5.404-3.028
			c1.113-0.588,2.295-1.047,3.443-1.569c0.213-0.095,0.416-0.21,0.814-0.413c-0.386-0.081-0.571-0.118-0.756-0.158
			c-2.081-0.456-4.178-0.851-6.238-1.387c-1.722-0.447-3.418-1.011-5.093-1.615c-1.312-0.474-2.577-1.076-3.854-1.643
			c-1.467-0.65-2.952-1.27-4.377-2.002c-2.333-1.198-4.647-2.437-6.924-3.736c-1.672-0.954-3.308-1.984-4.9-3.068
			c-2-1.36-3.972-2.767-5.895-4.232c-2.174-1.657-4.332-3.342-6.399-5.126c-1.747-1.509-3.378-3.154-5.017-4.783
			c-1.217-1.21-2.389-2.468-3.528-3.752c-0.55-0.619-0.979-1.347-1.422-1.969c0.279-0.729,0.836-0.835,1.337-0.893
			c2.19-0.247,4.381-0.563,6.579-0.631c2.967-0.093,5.946-0.099,8.908,0.071c3.805,0.217,7.604,0.518,11.385,1.107
			c2.318,0.363,4.61,0.818,6.89,1.334c3.307,0.75,6.599,1.577,9.878,2.442c4.13,1.091,8.195,2.405,12.157,3.999
			c3.276,1.317,6.501,2.766,9.601,4.484c2.969,1.645,5.998,3.182,8.972,4.819c3.931,2.166,7.753,4.511,11.439,7.078
			c3.052,2.123,6.046,4.317,8.882,6.726c0.85,0.723,1.699,1.455,2.609,2.095c0.531,0.374,1.18,0.584,1.783,0.85
			c3.611,1.587,6.486,4.148,9.072,7.034c1.679,1.875,3.266,3.849,4.734,5.893c1.594,2.219,3.062,4.536,4.479,6.873
			c2.078,3.427,4.668,6.385,7.699,8.991c2.85,2.449,5.618,4.991,7.97,7.938c1.077,1.349,1.838,2.878,2.379,4.53
			c0.856,2.614,0.874,5.296,0.82,7.998c-0.054,2.668-0.385,5.296-0.996,7.892c-0.087,0.369-0.098,0.754-0.16,1.263
			c0.286-0.156,0.493-0.239,0.667-0.369c0.898-0.672,1.761-1.396,2.688-2.025c1.04-0.705,2.124-1.347,3.214-1.973
			c0.438-0.252,0.775-0.507,1.007-0.997c0.326-0.689,0.746-1.355,1.233-1.943c0.601-0.725,1.201-0.706,1.887-0.077
			c0.256,0.233,0.505,0.471,0.803,0.751c0.303-0.184,0.568-0.34,0.829-0.503c0.357-0.223,0.706-0.459,1.067-0.675
			c1.54-0.921,2.291-0.119,2.744,1.092c0.107,0.289,0.193,0.586,0.32,0.968c0.765-0.132,1.479-0.255,2.193-0.38
			c0.378-0.066,0.753-0.173,1.133-0.195c0.944-0.054,1.42,0.311,1.631,1.248c0.123,0.543,0.19,1.097,0.287,1.671
			c0.393,0.078,0.766,0.137,1.13,0.228c0.694,0.174,0.96,0.486,0.933,1.175c-0.017,0.451-0.12,0.9-0.181,1.351
			c-0.062,0.46,0.011,0.846,0.551,0.969c0.102,0.023,0.19,0.092,0.29,0.125c1.307,0.42,1.845,1.416,0.994,3.03
			c-0.114,0.216-0.252,0.423-0.408,0.612c-1.488,1.797-1.766,4.051-2.358,6.189c-0.456,1.648-0.927,3.294-1.464,4.917
			c-1.064,3.221-2.106,6.453-3.295,9.627c-1.08,2.887-2.295,5.726-3.537,8.547c-1.723,3.911-3.639,7.73-5.77,11.438
			c-2.202,3.83-4.49,7.607-7.152,11.141c-1.875,2.489-3.793,4.947-5.692,7.42c-0.021,0.027-0.036,0.064-0.063,0.084
			c-1.726,1.201-1.458,2.928-1.171,4.623c0.192,1.135,0.52,2.246,0.762,3.373c0.324,1.504,0.584,3.023,0.943,4.519
			c0.587,2.449,1.185,4.897,1.863,7.322c0.904,3.231,1.804,6.468,2.865,9.649c1.02,3.053,2.246,6.035,3.376,9.051
			c0.935,2.494,1.895,4.979,2.779,7.49c0.825,2.342,1.673,4.685,2.319,7.078c0.875,3.245,1.409,6.563,1.733,9.918
			c0.271,2.813,0.274,5.611-0.124,8.394c-0.379,2.638-1.094,5.188-2.199,7.644c-1.516,3.363-3.758,6.131-6.483,8.554
			c-0.102,0.089-0.198,0.186-0.39,0.365c0.58,0.247,1.072,0.485,1.584,0.67c2.039,0.735,4.131,1.347,6.119,2.2
			c4.059,1.742,8.016,3.688,11.402,6.609c1.508,1.3,2.647,2.892,3.685,4.563c0.433,0.696,0.312,1.514-0.233,2.145
			c-0.386,0.447-0.771,0.902-1.209,1.295c-0.541,0.486-1.219,0.625-1.944,0.678c-1.954,0.14-3.839-0.242-5.713-0.689
			c-4.146-0.987-8.276-2.046-12.429-2.998c-3.136-0.72-6.287-1.378-9.451-1.963c-3.741-0.693-7.496-1.325-11.26-1.892
			c-2.877-0.435-5.719-0.993-8.471-1.937c-0.722-0.247-1.453-0.576-2.052-1.035c-0.582-0.447-0.999-1.108-1.678-1.893
			c-1.935-0.335-4.169-0.739-6.411-1.102c-1.759-0.282-3.521-0.553-5.292-0.746c-1.044-0.115-2.104-0.099-3.157-0.095
			c-2.459,0.006-4.926-0.065-7.376,0.094c-2.582,0.167-5.161,0.48-7.719,0.881c-3.835,0.602-7.656,1.296-11.468,2.024
			c-2.236,0.427-4.434,1.046-6.666,1.492c-2.605,0.521-5.195,1.16-7.868,1.281c-0.242,0.012-0.546,0.146-0.7,0.325
			c-1.072,1.24-2.02,2.601-3.18,3.748c-2.043,2.019-4.128,4.011-6.342,5.834c-2.924,2.409-6.024,4.599-9.604,5.974
			c-1.177,0.451-2.394,0.759-3.673,0.78c-0.407,0.007-0.812,0.152-1.218,0.236c-0.582,0.119-1.159,0.277-1.747,0.351
			c-0.568,0.072-1.17,0.007-1.566-0.443c-0.671-0.763-2.025-1.002-1.932-2.348c0.055-0.793,0.166-1.604,0.4-2.361
			c1-3.222,2.982-5.851,5.177-8.335c1.792-2.03,3.74-3.901,5.864-5.588c0.433-0.343,0.823-0.743,1.303-1.181
			c-1.087-0.637-2.11-1.209-3.106-1.826c-3.215-1.992-5.772-4.651-7.883-7.775c-1.563-2.314-2.705-4.824-3.574-7.461
			c-0.814-2.467-1.253-5.016-1.585-7.588c-0.406-3.151-0.278-6.307-0.193-9.464c0.009-0.348,0.114-0.691,0.125-1.039
			c0.024-0.782-0.022-0.825-0.784-0.94c-1.695-0.257-3.395-0.482-5.084-0.773c-3.069-0.527-6.136-1.068-9.195-1.653
			c-1.578-0.301-3.144-0.675-4.698-1.08c-0.89-0.232-1.004-0.431-0.733-1.272c0.653-2.025,1.343-4.039,2.065-6.041
			c0.688-1.91,1.421-3.807,2.163-5.695c0.688-1.758,1.417-3.5,2.123-5.25c0.037-0.092,0.033-0.199,0.068-0.424
			c-0.354-0.1-0.702-0.252-1.063-0.291c-2.924-0.316-5.847-0.633-8.774-0.904c-3.207-0.296-6.419-0.522-9.626-0.816
			c-1.915-0.176-3.823-0.422-5.733-0.643c-0.953-0.109-1.132-0.349-0.777-1.223c0.963-2.367,1.945-4.727,2.959-7.072
			c0.859-1.988,1.758-3.96,2.666-5.927c1.129-2.446,2.287-4.878,3.429-7.317c1.48-3.162,2.958-6.325,4.433-9.49
			c0.074-0.157,0.102-0.334,0.166-0.553c-0.223,0-0.438-0.053-0.612,0.009c-2.015,0.709-4.033,1.411-6.031,2.161
			c-2.982,1.121-5.958,2.262-8.922,3.429c-3.059,1.206-6.102,2.444-9.146,3.687c-2.168,0.885-4.333,1.774-6.48,2.705
			c-0.636,0.275-1.062,0.109-1.483-0.354c-1.535-1.687-3.133-3.318-4.603-5.059c-2.578-3.055-5.128-6.135-7.598-9.277
			c-2.667-3.391-5.22-6.873-7.84-10.301c-2.771-3.625-5.38-7.361-7.85-11.195c-0.302-0.468-0.502-1.001-0.769-1.494
			c-0.311-0.577-0.037-0.922,0.437-1.21c1.436-0.875,2.849-1.791,4.31-2.622c1.704-0.97,3.434-1.898,5.18-2.791
			c1.899-0.972,3.822-1.899,5.748-2.817c1.992-0.948,3.988-1.889,6.004-2.784c2.657-1.181,5.324-2.34,8.007-3.46
			c3.424-1.431,6.856-2.843,10.306-4.208c2.668-1.056,5.364-2.043,8.059-3.033c2.168-0.796,4.345-1.572,6.531-2.317
			c2.653-0.904,5.308-1.808,7.985-2.639c3.04-0.941,6.1-1.818,9.161-2.692c2.086-0.596,4.175-1.185,6.284-1.689
			c2.176-0.52,4.376-0.932,6.565-1.394C451.739,243.593,451.865,243.534,451.955,243.502z M466.602,202.956
			c-0.01,0.125-0.02,0.249-0.029,0.373c-0.367,0.018-0.733,0.039-1.1,0.051c-2.278,0.079-4.561,0.09-6.833,0.251
			c-2.407,0.17-4.806,0.464-7.205,0.737c-2.782,0.315-5.565,0.619-8.335,1.014c-2.252,0.321-4.493,0.732-6.727,1.168
			c-2.747,0.536-5.49,1.1-8.217,1.729c-1.943,0.449-3.859,1.017-5.784,1.547c-1.248,0.344-2.496,0.695-3.731,1.082
			c-2.539,0.795-5.083,1.573-7.597,2.441c-1.951,0.674-3.868,1.456-5.785,2.226c-1.818,0.728-3.634,1.467-5.421,2.269
			c-1.629,0.73-3.239,1.509-4.819,2.34c-2.974,1.564-5.923,3.178-8.877,4.78c-0.202,0.11-0.363,0.295-0.58,0.477
			c0.609,1.125,1.548,1.869,2.462,2.615c2.998,2.449,6.321,4.413,9.719,6.23c2.499,1.337,5.066,2.563,7.667,3.691
			c2.306,1,4.695,1.799,7.116,2.513c2.332,0.688,4.64,1.011,7.029,0.494c3.109-0.673,6.249-1.239,9.316-2.067
			c3.275-0.885,6.509-1.947,9.711-3.072c3.863-1.357,7.698-2.806,11.502-4.324c2.795-1.115,5.519-2.406,8.276-3.616
			c0.295-0.128,0.601-0.23,1.038-0.396c-0.146,0.768-0.638,0.986-1.032,1.195c-1.482,0.781-2.976,1.548-4.509,2.222
			c-1.104,0.485-1.158,0.49-1.206,1.658c-0.185,4.542,0.331,9.037,0.981,13.512c0.433,2.981,1.219,5.899,2.165,8.762
			c1.287,3.897,2.931,7.652,4.697,11.351c1.04,2.177,2.235,4.281,3.32,6.438c0.438,0.872,0.83,1.779,1.123,2.708
			c0.176,0.558,0.461,0.819,0.995,0.896c1.663,0.242,3.327,0.474,4.988,0.729c2.28,0.352,4.57,0.66,6.833,1.103
			c1.882,0.369,3.738,0.88,5.594,1.375c1.991,0.531,3.99,1.044,5.943,1.693c3.092,1.029,6.125,2.227,9.047,3.68
			c0.814,0.404,1.592,0.888,2.367,1.365c0.143,0.087,0.194,0.32,0.287,0.486c-0.061,0.054-0.121,0.107-0.183,0.162
			c-0.64-0.34-1.261-0.725-1.925-1.008c-1.864-0.799-3.723-1.616-5.626-2.312c-2.167-0.791-4.366-1.505-6.579-2.161
			c-1.771-0.524-3.577-0.945-5.381-1.349c-2.525-0.566-5.047-1.167-7.597-1.583c-3.21-0.523-6.442-0.946-9.677-1.282
			c-3.341-0.346-6.695-0.611-10.05-0.765c-1.99-0.09-3.997,0.051-5.99,0.179c-3.32,0.213-6.617,0.604-9.822,1.575
			c-0.862,0.262-1.716,0.212-2.509-0.349c-0.48-0.34-1.016-0.627-1.563-0.846c-0.876-0.349-1.171-0.157-1.236,0.757
			c-0.045,0.63,0.002,1.265-0.03,1.897c-0.056,1.078-0.198,1.186-1.271,1.411c-0.948,0.2-1.914,0.39-2.812,1.108
			c0.234,0.615,0.466,1.227,0.701,1.838c0.331,0.857,0.241,1.166-0.513,1.675c-0.145,0.099-0.326,0.145-0.462,0.25
			c-0.754,0.589-1.749,0.874-2.358,1.837c0.734,0.6,1.433,1.176,2.139,1.744c0.822,0.661,0.844,0.864,0.167,1.703
			c-0.462,0.573-0.937,1.139-1.375,1.731c-0.479,0.647-0.436,0.835,0.247,1.221c0.609,0.345,1.231,0.663,1.849,0.992
			c1.228,0.653,1.374,1.067,0.829,2.36c-0.293,0.697-0.586,1.396-0.94,2.236c0.667,0.077,1.23,0.26,1.752,0.18
			c1.342-0.209,2.323,0.301,3.294,1.177c1.743,1.572,3.524,3.112,5.393,4.53c2.678,2.034,5.405,4.012,8.192,5.893
			c2.785,1.879,5.626,3.686,8.523,5.386c3.169,1.86,6.402,3.618,9.661,5.317c2.325,1.211,4.722,2.293,7.12,3.359
			c1.371,0.609,2.81,1.066,4.214,1.604c0.327,0.125,0.759,0.15,0.831,0.732c-2.617-0.154-4.823-1.443-7.086-2.224
			c-0.339,0.572-0.545,1.115-0.917,1.497c-0.482,0.496-1.071,0.906-1.66,1.279c-1.942,1.234-4.111,1.982-6.304,2.563
			c-1.257,0.332-1.824,0.854-2.003,2.145c-0.269,1.929-0.751,3.828-1.152,5.783c0.378,0.194,0.678,0.364,0.99,0.507
			c1.487,0.674,2.822,1.559,3.923,2.777c1.655,1.836,1.825,4.65-0.37,6.404c-0.682,0.544-1.408,1.053-2.176,1.465
			c-1.325,0.709-2.705,1.311-4.042,1.998c-0.243,0.126-0.462,0.416-0.56,0.679c-0.132,0.353-0.158,0.751-0.19,1.134
			c-0.154,1.848-0.355,3.696-0.425,5.549c-0.1,2.625-0.258,5.264-0.098,7.879c0.197,3.207,0.53,6.414,1.367,9.55
			c0.535,2.005,1.156,3.981,2.083,5.817c1.413,2.799,3.301,5.273,5.648,7.387c3.456,3.111,7.467,5.146,11.935,6.365
			c3.07,0.837,6.196,1.131,9.358,1.117c0.979-0.003,1.957-0.111,2.934-0.203c0.869-0.081,1.745-0.154,2.6-0.323
			c2.3-0.453,4.588-0.967,6.885-1.438c2.055-0.421,4.114-0.825,6.175-1.222s4.119-0.813,6.189-1.15
			c3.528-0.576,7.089-0.869,10.652-1.1c1.95-0.126,3.908-0.187,5.86-0.158c1.713,0.025,3.422,0.213,5.133,0.329
			c2.023,0.138,4.044,0.226,6.049,0.612c3.399,0.653,6.826,1.168,10.229,1.805c3.475,0.65,6.965,0.819,10.465,0.379
			c3.498-0.44,6.859-1.361,9.93-3.191c3.985-2.374,7.517-5.244,10.264-9.025c1.547-2.131,2.627-4.5,3.307-6.999
			c0.604-2.22,0.957-4.53,0.844-6.861c-0.082-1.678-0.289-3.351-0.328-5.029c-0.066-2.966-0.714-5.837-1.402-8.69
			c-1.037-4.295-2.588-8.434-4.057-12.596c-1.501-4.256-3.029-8.504-4.478-12.777c-1.552-4.578-2.731-9.261-3.776-13.978
			c-0.444-2.014-0.859-4.034-1.307-6.047c-0.099-0.441-0.336-0.856-0.406-1.3c-0.252-1.59-0.496-3.184-0.673-4.783
			c-0.196-1.775-0.28-3.561-0.473-5.336c-0.366-3.371-0.53-6.747-0.378-10.137c0.008-0.139,0.104-0.275,0.159-0.412
			c0.075,0.008,0.149,0.016,0.224,0.023c0.507,2.133,0.258,4.341,0.497,6.502c0.239,2.167,0.326,4.351,0.48,6.527
			c0.571-0.402,0.962-0.842,1.312-1.312c2.033-2.724,4.111-5.416,6.066-8.196c1.244-1.773,2.342-3.654,3.43-5.531
			c1.473-2.541,2.906-5.106,4.293-7.697c0.842-1.572,1.58-3.203,2.332-4.822c1.115-2.409,2.256-4.808,3.285-7.253
			c1.005-2.384,1.88-4.821,2.82-7.231c0.381-0.978,0.83-1.932,1.171-2.924c0.751-2.183,1.466-4.377,2.168-6.576
			c0.606-1.896,1.153-3.813,1.772-5.705c0.172-0.52,0.404-1.101,0.791-1.451c0.83-0.751,1.187-1.704,1.564-2.821
			c-0.459-0.304-0.891-0.659-1.379-0.898c-0.986-0.484-1.002-0.46-0.974-1.55c0.007-0.244,0.032-0.49,0.073-0.73
			c0.188-1.117-0.082-1.354-1.23-1.081c-0.059,0.014-0.133-0.032-0.354-0.094c-0.138-0.479-0.302-1.039-0.454-1.601
			c-0.082-0.301-0.107-0.623-0.223-0.909c-0.27-0.667-0.482-0.781-1.213-0.618c-0.717,0.16-1.42,0.378-2.131,0.567
			c-1.016,0.27-1.09,0.249-1.567-0.65c-0.339-0.638-0.639-1.296-0.993-2.022c-1.197,0.619-2.398,1.03-2.928,2.467
			c-0.791-0.684-1.484-1.283-2.305-1.992c-0.344,0.581-0.631,1.007-0.858,1.462c-0.474,0.949-0.808,2.013-2.063,2.234
			c-2.125,1.604-4.262,3.195-6.368,4.824c-0.312,0.241-0.586,0.628-0.707,1.003c-0.44,1.36-0.765,2.757-1.212,4.114
			c-0.746,2.259-1.515,4.513-2.345,6.743c-0.706,1.9-1.519,3.759-2.27,5.644c-0.44,1.105-0.815,2.237-1.28,3.332
			c-1.063,2.508-2.147,5.007-3.254,7.497c-1.137,2.555-2.306,5.093-3.475,7.632c-0.098,0.21-0.308,0.37-0.466,0.553
			c-0.076-0.044-0.152-0.088-0.229-0.131c0.117-0.387,0.199-0.789,0.358-1.157c1.359-3.146,2.742-6.281,4.099-9.429
			c1.052-2.441,2.081-4.893,3.108-7.344c0.433-1.032,0.835-2.078,1.25-3.118c0.453-1.137,0.946-2.261,1.346-3.417
			c0.779-2.245,1.5-4.51,2.254-6.765c0.824-2.458,1.415-4.974,1.889-7.521c0.087-0.469-0.005-0.75-0.469-0.882
			c-1.472-0.417-2.473-1.459-3.328-2.627c-1.46-1.997-2.482-4.224-3.2-6.588c-0.726-2.388-1.157-4.827-1.403-7.313
			c-0.277-2.818-0.293-5.583,0.964-8.339c-1.413-1.294-2.821-2.607-4.255-3.892c-1.86-1.669-3.525-3.489-4.844-5.636
			c-1.594-2.594-3.195-5.194-4.965-7.669c-2.655-3.715-5.564-7.237-9.042-10.231c-1.671-1.439-3.39-2.813-5.471-3.681
			c-0.988-0.412-1.915-1.029-2.776-1.677c-1.791-1.349-3.496-2.813-5.281-4.171c-1.981-1.506-3.973-3.006-6.033-4.401
			c-2.408-1.63-4.864-3.195-7.357-4.692c-2.34-1.405-4.734-2.729-7.147-4.007c-2.104-1.113-4.249-2.153-6.411-3.154
			c-2.535-1.173-5.086-2.319-7.67-3.38c-2.003-0.823-4.049-1.552-6.107-2.227c-3.423-1.122-6.849-2.244-10.314-3.217
			c-2.619-0.736-5.297-1.271-7.961-1.832c-1.183-0.249-2.397-0.344-3.729-0.529c0,0.508-0.063,0.899,0.011,1.263
			c0.313,1.542,0.6,3.095,1.026,4.608c0.406,1.441,0.995,2.829,1.467,4.252c1.13,3.399,2.697,6.602,4.384,9.747
			c1.376,2.567,2.903,5.04,4.801,7.271c0.453,0.532,0.966,0.901,1.607,1.126c1.351,0.476,2.711,0.928,4.052,1.433
			c2.596,0.977,5.278,1.631,7.993,2.157c1.344,0.261,2.667,0.354,3.998-0.288c0.934-0.451,1.99-0.667,3.009-0.917
			c2.516-0.616,5.034-1.196,7.604-1.587c3.895-0.593,7.785-0.918,11.723-0.595c3.146,0.258,6.261,0.675,9.297,1.578
			c0.436,0.129,0.889,0.207,1.314,0.361c0.694,0.254,1.447,0.416,2.137,1.08c-0.301,0.053-0.43,0.113-0.54,0.089
			c-0.749-0.16-1.495-0.333-2.24-0.512c-3.309-0.796-6.64-1.464-10.057-1.506c-2.449-0.03-4.917-0.153-7.343,0.094
			c-2.812,0.286-5.615,0.807-8.368,1.456c-2.89,0.68-5.755,1.518-8.559,2.496c-3.575,1.247-6.937,3-10.187,4.938
			c-3.524,2.102-6.948,4.354-10.234,6.822c-3.403,2.557-6.622,5.314-9.605,8.344c-0.721,0.733-1.344,1.563-2.119,2.473
			C463.292,202.532,464.978,202.487,466.602,202.956z M429.933,302.154c-0.523,1.021-1.036,1.973-1.505,2.945
			c-1.28,2.646-2.546,5.299-3.808,7.953c-1.08,2.271-2.157,4.547-3.217,6.828c-0.828,1.779-1.644,3.564-2.437,5.361
			c-1.044,2.364-2.067,4.739-3.081,7.116c-0.186,0.435-0.286,0.905-0.454,1.449c0.503,0.033,0.881,0.046,1.257,0.085
			c2.262,0.232,4.522,0.48,6.786,0.703c0.976,0.097,1.958,0.121,2.933,0.217c2.647,0.261,5.292,0.553,7.938,0.812
			c1.672,0.163,3.35,0.264,5.021,0.438c0.924,0.095,1.839,0.283,2.923,0.456c-0.227,0.692-0.408,1.247-0.6,1.836
			c0.276-0.197,0.51-0.364,0.959-0.687c-0.158,1.527-0.292,2.82-0.425,4.113c0.407-0.318,0.681-0.709,0.927-1.117
			c0.326-0.539,0.616-1.101,0.949-1.635c0.261-0.418,0.605-0.685,1.173-0.354c0,0.613-0.051,1.244,0.015,1.863
			c0.062,0.588-0.408,1.189,0.025,1.82c1.298-1.465,2.199-3.174,3.718-4.611c0.205,1.654-0.349,3.086-0.092,4.652
			c1.506-1.322,2.369-3.055,3.832-4.317c0.634,0.853,0.006,1.854,0.562,2.683c0.156-0.258,0.267-0.433,0.37-0.612
			c1.431-2.489,2.806-5.013,4.311-7.456c1.028-1.67,2.21-3.24,2.371-5.287c0.008-0.104,0.066-0.203,0.075-0.306
			c0.028-0.341,0.044-0.684,0.068-1.081c-4.996-1.773-10.16-2.723-15.191-4.348c0.098-1.57,1.05-2.684,1.789-3.889
			c0.762-1.245,1.528-2.488,2.334-3.803c-0.771-0.541-1.461-1.008-2.132-1.5c-2.794-2.056-5.616-4.074-8.362-6.191
			c-2.081-1.604-4.063-3.338-6.091-5.014c-0.499-0.411-1.043-0.688-1.719-0.676c-0.526,0.011-1.053-0.025-1.578-0.065
			c-1.023-0.076-1.363-0.536-1.14-1.528c0.03-0.135,0.104-0.26,0.157-0.39c0.289-0.706,0.577-1.412,0.87-2.131
			c-0.401-0.556-1.012-0.751-1.556-1.054c-0.488-0.271-0.989-0.539-1.418-0.889c-0.777-0.635-0.84-1.172-0.277-2.006
			c0.332-0.493,0.733-0.939,1.089-1.418c0.2-0.268,0.373-0.558,0.585-0.881c-0.305-0.234-0.525-0.398-0.742-0.568
			c-0.441-0.346-0.917-0.658-1.313-1.049c-0.874-0.864-0.826-1.547,0.142-2.268c0.39-0.29,0.832-0.512,1.253-0.756
			c0.477-0.277,0.958-0.547,1.505-0.857c-0.264-0.627-0.525-1.189-0.74-1.77c-0.475-1.281-0.289-1.693,1-2.132
			c0.827-0.282,1.676-0.503,2.517-0.745c0.461-0.132,0.706-0.395,0.693-0.909c-0.013-0.525,0.03-1.052,0.065-1.577
			c0.115-1.731,0.308-2.18,2.3-1.387c0.288,0.115,0.534,0.331,0.803,0.494c0.361,0.217,0.712,0.457,1.094,0.629
			c0.202,0.091,0.473,0.125,0.689,0.077c2.491-0.562,4.97-1.128,7.524-1.407c2.897-0.315,5.798-0.546,8.7-0.525
			c3.324,0.025,6.647,0.318,9.972,0.488c0.187,0.009,0.378-0.057,0.593-0.091c-0.046-1.202-0.684-2.11-1.165-3.066
			c-1.197-2.376-2.486-4.708-3.638-7.105c-1.592-3.313-3.051-6.688-4.129-10.208c-0.625-2.038-1.18-4.099-1.705-6.165
			c-0.395-1.553-0.69-3.13-1.046-4.772c-0.23,0-0.507-0.044-0.764,0.007c-1.474,0.294-2.958,0.553-4.41,0.933
			c-3.621,0.947-7.23,1.943-10.836,2.944c-1.382,0.384-2.747,0.83-4.116,1.255c-2.706,0.841-5.417,1.664-8.111,2.541
			c-2.23,0.726-4.447,1.496-6.654,2.289c-3.69,1.325-7.377,2.657-11.046,4.038c-2.325,0.875-4.625,1.818-6.917,2.778
			c-3.038,1.271-6.066,2.565-9.078,3.897c-1.891,0.836-3.754,1.736-5.61,2.649c-2.829,1.392-5.646,2.807-8.456,4.237
			c-1.528,0.778-3.044,1.582-4.54,2.422c-1.039,0.584-2.042,1.234-3.042,1.882c-0.667,0.433-0.766,0.445-0.325,1.373
			c0.3,0.63,0.697,1.22,1.105,1.789c1.739,2.418,3.474,4.842,5.258,7.227c2.772,3.709,5.532,7.426,8.392,11.066
			c3.055,3.888,6.202,7.703,9.345,11.521c1.18,1.435,2.448,2.798,3.704,4.167c0.586,0.639,0.67,0.621,1.459,0.266
			c0.512-0.23,1.012-0.488,1.531-0.702c2.235-0.917,4.473-1.829,6.713-2.731c2.498-1.006,4.988-2.031,7.503-2.99
			c2.841-1.085,5.704-2.116,8.563-3.152c2.137-0.775,4.283-1.523,6.427-2.28C428.853,301.822,429.353,301.635,429.933,302.154z
			 M545.84,394.986c-0.043,0.08-0.088,0.16-0.131,0.24c0.337,0.284,0.633,0.668,1.021,0.831c1.126,0.474,2.263,0.96,3.442,1.256
			c1.998,0.501,4.031,0.861,6.051,1.28c0.82,0.171,1.639,0.363,2.464,0.508c2.448,0.428,4.903,0.812,7.347,1.256
			c2.479,0.452,4.953,0.938,7.422,1.445c2.396,0.495,4.788,1.021,7.175,1.565c3.099,0.707,6.183,1.476,9.288,2.154
			c1.744,0.382,3.521,0.597,5.318,0.556c0.549-0.014,1.017-0.133,1.375-0.729c-0.314-0.266-0.57-0.563-0.894-0.739
			c-1.074-0.583-2.14-1.201-3.267-1.664c-2.689-1.105-5.412-2.127-8.12-3.189c-0.335-0.131-0.655-0.301-0.981-0.453
			c0.029-0.069,0.059-0.14,0.088-0.21c1.425,0.105,2.766,0.603,4.1,1.057c3.441,1.172,6.891,2.342,9.832,4.567
			c0.658-0.678,0.682-0.827,0.178-1.403c-0.207-0.234-0.439-0.464-0.701-0.634c-1.617-1.044-3.201-2.149-4.882-3.079
			c-2.019-1.117-4.126-2.076-6.19-3.11c-0.246-0.123-0.504-0.273-0.297-0.707c3.725,1.087,7.129,2.848,10.426,4.872
			c-0.091-0.22-0.214-0.383-0.362-0.52c-1.941-1.8-4.153-3.224-6.435-4.537c-2.762-1.592-5.604-3.037-8.621-4.082
			c-1.68-0.582-3.418-1.002-5.142-1.45c-0.661-0.172-1.234-0.004-1.837,0.45c-2.499,1.887-5.234,3.344-8.219,4.343
			c-2.345,0.783-4.755,1.231-7.194,1.414c-3.726,0.281-7.407-0.199-11.049-0.994C546.641,395.192,546.241,395.085,545.84,394.986z
			 M464.49,414.173c0.144,0.051,0.238,0.114,0.328,0.108c0.208-0.012,0.415-0.054,0.62-0.091c2.463-0.454,4.658-1.581,6.703-2.935
			c2.247-1.488,4.412-3.115,6.502-4.816c2.697-2.195,5.146-4.67,7.5-7.23c0.141-0.154,0.193-0.386,0.358-0.728
			c-0.615,0-1.063-0.006-1.513,0c-2.893,0.04-5.715-0.473-8.504-1.154c-1.356-0.332-2.67-0.847-3.991-1.313
			c-0.413-0.146-0.711-0.131-1.047,0.174c-2.026,1.839-4.136,3.589-6.086,5.503c-2.267,2.224-4.095,4.801-5.386,7.719
			c-0.38,0.858-0.65,1.778-0.86,2.694c-0.141,0.616-0.082,1.274,0.613,1.816c0.695-1.973,1.796-3.582,3.01-5.13
			c1.612-2.054,3.521-3.69,4.641-3.742c-0.313,0.343-0.534,0.585-0.755,0.827c-1.137,1.241-2.315,2.449-3.401,3.734
			c-1.063,1.258-2.033,2.595-2.566,4.189c-0.226,0.675,0.083,1.176,0.767,1.096c0.989-0.116,1.874-0.398,2.466-1.366
			c0.562-0.919,1.261-1.772,1.992-2.568c1.042-1.135,2.135-2.229,3.27-3.271c0.849-0.778,1.793-1.456,2.708-2.162
			c0.136-0.105,0.342-0.122,0.516-0.18c0.042,0.057,0.084,0.112,0.127,0.168c-0.249,0.271-0.489,0.552-0.749,0.812
			c-2.032,2.038-4.071,4.07-6.103,6.108C465.156,412.929,464.727,413.47,464.49,414.173z M454.897,358.602
			c0.201-2.257,0.383-4.297,0.568-6.365c-1.716-0.691-3.327-1.358-4.953-1.986c-0.935-0.36-1.022-0.434-0.652-1.348
			c0.774-1.91,1.585-3.805,2.378-5.707c0.066-0.159,0.153-0.333,0.143-0.494c-0.049-0.752-0.128-1.5-0.196-2.25
			c-0.071-0.041-0.142-0.08-0.212-0.121c-0.158,0.219-0.303,0.447-0.476,0.654c-0.991,1.181-1.988,2.355-2.981,3.535
			c-0.205,0.242-0.394,0.51-0.782,0.228c0.084-1.296,0.168-2.591,0.253-3.886c-1.372,1.227-2.22,2.832-3.658,4.215
			c-0.271-1.487,0.159-2.768-0.174-4.203c-0.396,0.65-0.689,1.121-0.972,1.6c-0.339,0.57-0.667,1.148-1.003,1.721
			c-0.173,0.296-0.437,0.545-0.764,0.355c-0.185-0.108-0.313-0.434-0.336-0.674c-0.034-0.342,0.047-0.695,0.089-1.045
			c0.09-0.747,0.187-1.494,0.292-2.326c-0.772,0.469-1.386,0.92-1.622,1.779c-0.175,0.635-0.485,1.232-0.741,1.844
			c-1.144,2.74-2.316,5.469-3.418,8.225c-0.331,0.826-0.469,1.729-0.718,2.686c0.412,0.146,0.724,0.299,1.053,0.365
			c2.154,0.439,4.308,0.883,6.468,1.281c3.129,0.58,6.261,1.146,9.399,1.67C452.832,358.514,453.812,358.518,454.897,358.602z
			 M566.166,211.297c-0.277,0.673-0.548,1.098-0.621,1.555c-0.18,1.138-0.391,2.292-0.37,3.437c0.036,1.991,0.116,3.992,0.634,5.938
			c0.171,0.644,0.361,1.284,0.514,1.931c0.728,3.106,1.941,5.994,3.848,8.567c0.563,0.76,1.152,1.49,2.027,1.953
			c0.805,0.425,1.113,0.34,1.346-0.525c0.035-0.133,0.03-0.278,0.043-0.417c0.084-0.942,0.178-1.882,0.25-2.824
			c0.1-1.29,0.273-2.582,0.25-3.869c-0.029-1.536-0.121-3.09-0.399-4.596c-0.231-1.257-0.663-2.508-1.201-3.671
			c-0.663-1.431-1.587-2.725-2.712-3.854C568.639,213.782,567.506,212.643,566.166,211.297z M461.474,321.252
			c-3.746-2.261-7.469-4.508-11.258-6.796c-1.233,2.246-2.802,4.221-3.814,6.612c4.839,1.346,9.593,2.666,14.403,4.003
			C461.039,323.732,461.255,322.5,461.474,321.252z M455.669,351.438c0.308-1.694,0.583-3.229,0.865-4.765
			c0.283-1.545,0.558-3.094,0.863-4.635c0.312-1.577,0.676-3.144,0.982-4.722c0.291-1.496,0.772-2.964,0.707-4.536
			c-3.454,5.208-6.171,10.771-8.645,16.64C452.221,350.107,453.867,350.743,455.669,351.438z M458.648,339.955
			c-0.608,3.768-1.191,7.374-1.794,11.109c0.393-0.107,0.67-0.137,0.901-0.256c1.672-0.864,3.408-1.602,4.921-2.766
			c1.628-1.252,1.957-3.152,0.729-4.797C462.233,341.675,460.597,340.783,458.648,339.955z M469.962,325.139
			c-1.242-0.553-2.521-1.107-3.788-1.689c-1.276-0.587-2.469-1.359-3.847-1.846c-0.528,2.996-1.029,5.833-1.543,8.744
			c0.304-0.025,0.517-0.006,0.706-0.065c1.301-0.408,2.639-0.736,3.882-1.279c1.276-0.558,2.478-1.298,3.673-2.022
			C469.657,326.609,470.091,326.051,469.962,325.139z"/>
		<path fill-rule="evenodd" clip-rule="evenodd" fill="#FFFFFF" d="M499.914,228.846c0.07,1.417-0.389,2.979-1.34,4.379
			c-1.256,1.85-3.107,2.852-5.244,3.172c-1.748,0.262-3.547,0.331-5.296-0.18c-3.36-0.983-6.399-3.972-6.719-7.882
			c-0.379-4.647,2.593-8.695,6.62-9.773c2.989-0.8,5.803-0.218,8.293,1.792C498.871,222.484,499.9,225.276,499.914,228.846z
			 M495.121,223.32c0.266-1.705-1.933-3.986-3.941-3.973c-1.99,0.013-3.197,2.065-3.309,3.567c-0.125,1.676,1.475,3.572,3.537,3.689
			C492.986,226.693,495.271,225.337,495.121,223.32z"/>
		<path fill-rule="evenodd" clip-rule="evenodd" fill="#FFFFFF" d="M522.197,235.328c0.902,0.064,1.807,0.117,2.71,0.192
			c1.583,0.133,3.19,0.211,4.663-0.439c1.111-0.49,2.221-1.106,3.137-1.893c1.674-1.437,3.232-3.014,4.783-4.586
			c1.083-1.097,2.09-2.271,3.105-3.434c0.545-0.623,1.139-0.854,1.958-0.575c0.926,0.316,1.894,0.509,2.819,0.826
			c1.357,0.465,2.752,0.557,4.153,0.436c0.933-0.08,1.731-0.548,2.345-1.273c0.313-0.37,0.587-0.774,0.998-1.322
			c0.064,0.332,0.18,0.551,0.127,0.715c-0.328,1-0.927,1.801-1.872,2.309c-0.304,0.163-0.616,0.308-0.901,0.451
			c0.146,1.634,0.342,3.196,0.41,4.764c0.082,1.892,0.111,3.789,0.058,5.681c-0.042,1.467-0.228,2.931-0.38,4.393
			c-0.268,2.576-0.492,5.157-0.861,7.719c-0.314,2.176-0.744,4.342-1.239,6.485c-0.601,2.596-1.425,5.139-2.724,7.475
			c-0.641,1.151-1.426,2.271-2.346,3.208c-2.293,2.335-5.198,1.996-7.372-0.129c-1.578-1.543-2.689-3.403-3.659-5.355
			c-1.248-2.515-2.255-5.125-2.973-7.841c-0.554-2.099-1.184-4.183-1.621-6.306c-0.5-2.431-0.833-4.897-1.222-7.351
			c-0.151-0.958-0.261-1.925-0.384-2.85c-1.338-0.341-2.641-0.366-3.78-0.945C522.152,235.563,522.174,235.446,522.197,235.328z
			 M526.684,236.48c0.035,0.556,0.035,0.938,0.088,1.312c0.199,1.385,0.424,2.766,0.623,4.151c0.488,3.405,1.4,6.713,2.326,10.014
			c0.681,2.428,1.523,4.804,2.587,7.099c1.083,2.334,2.339,4.571,4.077,6.47c1.396,1.527,3.071,2.225,4.957,1.113
			c0.211-0.125,0.407-0.272,0.604-0.419c1.248-0.93,2.004-2.245,2.679-3.589c0.736-1.465,1.329-2.99,1.826-4.567
			c0.938-2.974,1.597-6.008,2.167-9.065c0.256-1.372,0.43-2.76,0.592-4.147c0.207-1.773,0.333-3.555,0.553-5.326
			c0.148-1.195-0.336-2.078-1.102-2.928c-1.689-1.876-3.727-3.294-5.864-4.582c-1.231-0.741-2.558-1.291-3.969-1.61
			c-0.935-0.212-1.771-0.208-2.415,0.712c-0.375,0.535-0.884,0.998-1.398,1.412c-1.227,0.985-2.433,2.016-3.76,2.85
			C529.945,236.202,528.461,236.669,526.684,236.48z M538,229.529c4.804,0.981,8.537,3.438,11.713,6.926
			c0.291-3.232,0.113-6.37-0.436-9.489c-2.37-0.212-4.563-0.613-6.635-1.523c-0.096-0.042-0.191-0.089-0.29-0.125
			c-0.333-0.119-0.584-0.044-0.831,0.24C540.4,226.847,539.255,228.118,538,229.529z"/>
		<path fill-rule="evenodd" clip-rule="evenodd" fill="#FFFFFF" d="M539.783,200.483c0.072-0.368,0.143-0.958,0.307-1.52
			c0.511-1.748,1.847-2.436,3.924-2.01c2.189,0.449,3.876,1.765,5.273,3.436c1.878,2.244,3.133,4.822,3.643,7.704
			c0.166,0.938,0.045,1.95-0.084,2.909c-0.102,0.759-0.613,1.338-1.343,1.645c-1.591,0.667-3.167,0.822-4.716-0.155
			c-2.063-1.303-3.619-3.089-4.841-5.164c-0.942-1.602-1.745-3.28-2.015-5.151C539.862,201.692,539.845,201.202,539.783,200.483z
			 M540.955,199.945c0.264,0.889,0.426,1.794,0.796,2.605c0.56,1.229,1.422,2.244,2.694,2.826c0.886,0.405,1.352,0.321,1.92-0.445
			c0.417-0.564,0.729-1.211,0.632-1.947c-0.288-2.201-1.231-4.006-3.261-5.079c-0.878-0.465-1.816-0.35-2.257,0.54
			C541.256,198.896,541.141,199.403,540.955,199.945z"/>
		<path fill-rule="evenodd" clip-rule="evenodd" fill="#FFFFFF" d="M490.641,270.25c-1.913,0.042-3.792-0.154-5.523-1.015
			c-2.395-1.188-4.151-2.98-5.324-5.433c-1.022-2.138-1.565-4.363-1.509-6.682c0.059-2.404,0.799-4.65,2.197-6.67
			c1.154-1.667,2.524-3.081,4.211-4.198c3.154-2.089,6.58-2.841,10.309-2.104c1.523,0.301,2.99,0.782,4.297,1.626
			c1.399,0.904,2.586,2.081,3.376,3.541c1.819,3.357,2.282,6.958,1.496,10.681c-0.577,2.734-2.089,4.937-4.256,6.684
			c-1.061,0.855-2.101,1.72-3.37,2.302C494.655,269.848,492.689,270.208,490.641,270.25z M503.674,256.833
			c0.034-1.922-0.266-3.77-1-5.542c-1.082-2.608-2.859-4.509-5.501-5.62c-1.976-0.831-4.02-0.895-6.089-0.769
			c-1.629,0.099-3.135,0.646-4.569,1.421c-2.104,1.138-3.845,2.691-5.214,4.635c-1.101,1.563-1.883,3.307-2.046,5.222
			c-0.305,3.608,0.684,6.878,2.968,9.697c0.975,1.202,2.154,2.233,3.646,2.755c1.049,0.366,2.138,0.701,3.234,0.833
			c2.223,0.265,4.387-0.024,6.473-0.933c1.705-0.743,3.148-1.838,4.495-3.066c1.61-1.468,2.793-3.247,3.233-5.414
			C503.52,258.999,503.557,257.908,503.674,256.833z"/>
		<path fill-rule="evenodd" clip-rule="evenodd" fill="#FFFFFF" d="M536.387,217.667c-0.738-0.044-1.402,0.163-1.563-0.529
			c-0.135-0.585,0.453-0.84,0.861-1.062c0.764-0.413,1.563-0.77,2.373-1.084c0.203-0.08,0.615,0.012,0.732,0.172
			c0.114,0.158,0.056,0.546-0.063,0.753C538.157,216.904,537.56,217.893,536.387,217.667z"/>
	</g>
	<g>
		<path fill-rule="evenodd" clip-rule="evenodd" fill="#FFFFFF" d="M902.012,276.628c-0.127,0.338-0.265,0.673-0.38,1.016
			c-0.436,1.294-0.815,2.609-1.31,3.88c-0.436,1.119-0.552,2.265-0.587,3.44c-0.052,1.714,0.039,3.451-0.224,5.133
			c-0.467,2.98-2.021,5.218-4.998,6.279c-1.16,0.412-2.289,0.908-3.269,1.301c0.065,3.292,0.205,6.479,0.173,9.664
			c-0.032,3.211-0.107,6.432-0.401,9.626c-0.238,2.585-0.757,5.152-1.278,7.701c-0.805,3.929-1.446,7.923-2.662,11.729
			c-1.301,4.071-2.953,8.063-5.255,11.726c-1.454,2.314-2.975,4.595-4.301,6.982c-1.379,2.482-3.218,4.577-5.133,6.614
			c-2.526,2.688-4.784,5.647-7.694,7.953c-2.924,2.316-5.913,4.553-8.902,6.787c-0.528,0.395-1.207,0.581-1.793,0.907
			c-1.212,0.673-2.424,1.348-3.605,2.07c-2.072,1.266-4.367,1.859-6.701,2.396c-5.826,1.342-11.703,1.04-17.57,0.532
			c-3.41-0.295-6.802-0.838-10.19-1.343c-0.919-0.137-1.799-0.541-2.78-0.849c-0.059,0.119-0.193,0.36-0.301,0.613
			c-0.818,1.919-1.771,3.751-3.006,5.455c-1.092,1.505-2.013,3.136-2.964,4.739c-0.124,0.209-0.077,0.638,0.058,0.865
			c0.964,1.616,1.999,3.189,2.956,4.81c0.984,1.665,1.178,3.526,1.097,5.409c-0.021,0.491-0.327,0.977-0.531,1.451
			c-0.806,1.877-1.883,3.516-3.523,4.83c-1.138,0.911-2.111,2.076-2.983,3.256c-1.216,1.642-2.915,2.582-4.625,3.512
			c-1.083,0.59-2.396-0.186-2.571-1.416c-0.077-0.536-0.075-1.082-0.131-1.622c-0.057-0.538-0.318-0.893-0.91-0.905
			c-0.602-0.014-1.256-0.158-1.517,0.638c-0.414,1.262-1.106,2.363-2.053,3.28c-0.421,0.407-0.968,0.684-1.458,1.02
			c-0.825,0-1.65,0-2.477,0c-0.938-1.313-1.867-2.633-2.826-3.932c-0.12-0.162-0.401-0.294-0.596-0.279
			c-0.119,0.01-0.239,0.314-0.315,0.504c-0.071,0.178-0.1,0.376-0.122,0.568c-0.092,0.772-0.396,1.383-1.12,1.781
			c-0.221,0.122-0.315,0.482-0.456,0.739c-0.109,0.201-0.2,0.412-0.3,0.618c-0.218,0-0.435,0-0.651,0
			c-1.072-0.456-2.106-1.077-3.224-1.333c-2.237-0.511-3.39-2.21-4.639-3.839c-0.747-0.973-1.522-1.87-2.7-2.375
			c-0.402-0.173-0.776-0.593-0.99-0.992c-1.896-3.545-2.935-7.294-2.242-11.331c0.208-1.213,0.767-2.376,1.244-3.529
			c0.352-0.851,0.974-1.609,1.215-2.48c0.209-0.758,0.236-1.668,0.021-2.42c-0.599-2.101-1.299-4.179-2.084-6.218
			c-0.584-1.514-1.377-2.946-2.045-4.429c-0.18-0.401-0.422-0.528-0.844-0.532c-1.977-0.022-3.961,0.021-5.927-0.146
			c-1.433-0.122-2.842-0.533-4.261-0.821c-0.613-0.124-1.225-0.261-1.836-0.395c-1.662-0.363-3.326-0.723-4.987-1.094
			c-0.528-0.119-1.015-0.191-1.422,0.303c-2.585,3.139-5.065,6.351-6.714,10.104c-0.38,0.862-0.557,1.821-0.771,2.749
			c-0.23,1.003,0.027,1.923,0.568,2.792c0.584,0.938,1.266,1.852,1.645,2.873c0.793,2.146,0.872,4.249-0.793,6.152
			c-0.994,1.137-2.109,2.008-3.498,2.619c-4.272,1.881-8.766,2.917-13.361,3.494c-3.422,0.43-6.872,0.633-10.311,0.936
			c-2.68,0.235-5.358,0.514-8.043,0.685c-1.508,0.096-3.004-0.005-4.521-0.286c-1.779-0.33-3.627-0.365-5.447-0.392
			c-3.625-0.051-7.254-0.07-10.877,0.028c-1.418,0.038-2.818,0.52-4.24,0.637c-1.902,0.156-3.817,0.167-5.727,0.204
			c-0.211,0.004-0.483-0.179-0.629-0.356c-0.73-0.894-1.635-1.534-2.668-2.035c-0.46-0.223-0.897-0.535-1.268-0.887
			c-0.714-0.68-0.846-1.624-0.396-2.506c0.255-0.502,0.583-0.968,0.83-1.474c0.235-0.483,0.559-0.991,0.582-1.5
			c0.11-2.462,2.797-4.44,4.849-4.472c1.62-0.025,2.943-0.708,4.096-1.751c2.368-2.144,4.997-3.931,7.852-5.313
			c3.192-1.546,6.174-3.542,9.606-4.593c0.524-0.161,1-0.478,1.623-0.782c-0.336-0.293-0.537-0.514-0.779-0.673
			c-1.562-1.027-2.861-2.329-3.97-3.82c-0.276-0.371-0.425-0.839-0.622-1.267c-0.072-0.155-0.099-0.331-0.177-0.481
			c-1-1.924-2.009-3.844-3.006-5.77c-0.106-0.205-0.227-0.445-0.218-0.664c0.152-3.468,0.115-6.96,0.975-10.354
			c0.675-2.664,1.898-5.108,3.626-7.219c1.824-2.23,3.745-4.412,5.849-6.374c1.894-1.766,4.09-3.207,6.154-4.787
			c0.62-0.475,1.256-0.929,1.875-1.404c0.483-0.371,0.534-0.829,0.311-1.39c-0.807-2.012-1.603-4.027-2.365-6.056
			c-0.195-0.521-0.22-1.104-0.377-1.644c-0.581-1.998-1.099-4.021-1.803-5.977c-0.915-2.54-1.283-5.167-1.613-7.817
			c-0.225-1.808-0.559-3.602-0.775-5.409c-0.147-1.227-0.228-2.467-0.246-3.702c-0.074-4.974-0.119-9.948-0.152-14.923
			c-0.003-0.483-0.129-0.7-0.606-0.877c-3.703-1.368-7.006-3.414-9.981-6c-0.934-0.812-1.842-1.668-2.855-2.368
			c-2.053-1.419-3.544-3.389-5.209-5.178c-2.099-2.255-4.023-4.672-6.095-6.954c-3.548-3.907-7.147-7.768-10.734-11.638
			c-0.561-0.605-1.184-1.151-1.757-1.745c-1.368-1.417-2.724-2.847-4.084-4.271c0-0.218,0-0.435,0-0.652
			c0.596-0.87,1.137-1.785,1.802-2.6c0.864-1.059,1.8-2.063,2.755-3.042c1.03-1.059,1.504-2.272,1.447-3.758
			c-0.062-1.627-0.018-3.258,0.012-4.887c0.005-0.276,0.109-0.74,0.271-0.792c0.895-0.282,1.787-0.798,2.768-0.449
			c1.307,0.464,2.644,0.882,3.875,1.503c2.604,1.311,5.154,2.725,7.71,4.126c1.979,1.084,3.913,2.251,5.905,3.307
			c1.068,0.565,2.21,0.996,3.338,1.439c0.307,0.12,0.688,0.119,1.025,0.081c1.293-0.147,1.445-0.498,0.713-1.55
			c-0.087-0.124-0.163-0.262-0.271-0.365c-2.256-2.158-3.83-4.824-5.429-7.452c-2.141-3.521-4.216-7.086-6.195-10.701
			c-0.932-1.701-1.619-3.543-2.34-5.352c-1.346-3.377-1.349-6.918-0.394-10.299c1.063-3.763,2.45-7.457,4.738-10.741
			c0.886-1.271,1.88-2.403,3.065-3.338c1.477-1.165,3.064-2.191,4.635-3.233c0.639-0.424,1.143-0.86,1.311-1.672
			c0.166-0.799,0.47-1.572,0.744-2.346c0.45-1.265,0.982-2.502,1.381-3.782c1.256-4.036,2.363-8.121,3.735-12.116
			c0.776-2.264,1.955-4.391,2.959-6.575c3.144-6.842,7.681-12.422,14.378-16.112c1.693-0.935,3.434-1.724,5.222-2.433
			c1.894-0.75,3.78-1.517,5.674-2.269c2.48-0.985,4.961-1.953,7.653-2.237c1.61-0.17,3.209-0.45,4.813-0.681
			c1.738,0,3.477,0,5.215,0c0.896,0.126,1.802,0.217,2.689,0.39c0.678,0.133,1.386,0.27,1.99,0.579
			c1.459,0.745,3.026,1.056,4.605,1.338c1.439,0.257,2.715,0.878,3.939,1.635c1.398,0.863,2.814,1.7,4.188,2.602
			c0.631,0.414,1.195,0.936,1.761,1.44c1.943,1.733,3.995,3.366,5.776,5.252c2.375,2.515,4.257,5.426,5.951,8.445
			c0.743,1.322,1.497,2.639,2.203,3.98c1.597,3.032,2.421,6.331,2.964,9.666c0.715,4.388,1.111,8.825,1.748,13.228
			c1.097,7.588,0.487,15.223,0.715,22.834c0.188,6.253,0.184,12.511,0.336,18.765c0.063,2.515,0.139,5.054,0.536,7.528
			c0.372,2.319,1.177,4.569,1.789,6.85c0.175,0.652,0.59,0.815,1.233,0.706c3.144-0.533,6.279-1.151,9.443-1.511
			c1.754-0.199,3.355-0.831,5.033-1.232c0.702-0.169,1.351-0.554,2.032-0.816c4.755-1.827,9.502-3.679,14.275-5.458
			c2.122-0.791,4.284-1.49,6.461-2.118c1.157-0.334,2.378-0.531,3.581-0.598c1.334-0.074,2.571,0.422,3.588,1.291
			c0.27,0.231,0.396,0.764,0.389,1.154c-0.01,0.6-0.185,1.197-0.304,1.793c-0.109,0.548-0.327,1-0.867,1.299
			c-0.277,0.153-0.481,0.492-0.646,0.787c-0.346,0.618-0.602,1.287-0.969,1.891c-0.518,0.854-0.733,1.779-0.643,2.738
			c0.036,0.379,0.335,0.821,0.646,1.067c1.307,1.031,2.67,1.989,3.996,2.997c0.393,0.299,0.805,0.624,1.062,1.029
			c0.15,0.237,0.087,0.68-0.009,0.99c-0.241,0.775-0.588,1.518-0.831,2.293c-0.299,0.949-0.872,1.676-1.617,2.309
			c-1.639,1.392-3.288,2.773-4.88,4.217c-0.653,0.591-1.232,1.288-1.743,2.01c-3.468,4.91-7.767,8.99-12.504,12.645
			c-1.362,1.051-2.881,1.824-4.392,2.615c-1.798,0.941-3.605,1.864-5.419,2.774c-0.481,0.242-0.99,0.451-1.509,0.597
			c-0.492,0.138-0.629,0.426-0.526,0.869c0.078,0.336,0.188,0.667,0.306,0.992c2.12,5.851,4.258,11.694,6.354,17.554
			c0.437,1.222,0.662,2.518,1.079,3.747c1.181,3.483,1.8,7.119,3.095,10.587c0.951,2.548,1.404,5.303,1.893,7.999
			c0.746,4.119,1.338,8.266,1.977,12.404c0.096,0.619,0.309,0.939,1.01,1.007c0.522,0.05,1.089,0.301,1.51,0.626
			c0.965,0.743,1.89,1.442,3.12,1.79c1.78,0.503,3.503,1.218,5.229,1.897c2.767,1.089,5.674,1.433,8.599,1.638
			c2.359,0.165,4.73,0.169,7.091,0.325c1.223,0.082,2.297-0.385,3.403-0.712c2.741-0.811,5.424-1.847,8.197-2.517
			c2.309-0.558,4.509-1.329,6.637-2.336c0.719-0.34,1.364-0.838,2.026-1.288c1.472-1.001,2.977-1.96,4.389-3.039
			c2.905-2.221,5.316-4.933,7.418-7.905c2.774-3.923,5.307-8,6.977-12.534c0.897-2.44,1.669-4.93,2.417-7.421
			c0.456-1.522,0.824-3.079,1.106-4.643c0.16-0.885,0.091-1.816,0.066-2.725c-0.005-0.158-0.278-0.392-0.47-0.446
			c-1.021-0.292-2.082-0.461-3.072-0.829c-0.713-0.265-1.384-0.711-1.988-1.185c-2.29-1.796-3.572-4.272-4.477-6.961
			c-0.439-1.307-0.744-2.658-1.127-4.05c0.961-0.057,1.028-0.654,0.966-1.299c-0.175-1.816-0.394-3.625-1.239-5.285
			c-0.039-0.078-0.071-0.162-0.126-0.228c-1.939-2.325-2.486-5.198-3.138-8.023c-0.268-1.16-0.473-2.342-0.607-3.524
			c-0.058-0.511-0.015-1.145,0.244-1.559c0.953-1.527,1.351-3.192,1.426-4.946c0.09-2.102,0.212-4.222-0.463-6.261
			c-0.277-0.839-0.771-1.606-1.059-2.443c-0.315-0.914-0.636-1.859-0.722-2.813c-0.167-1.857-0.246-3.729-0.228-5.595
			c0.029-2.952,1.543-5.395,2.997-7.804c0.948-1.57,2.179-2.968,3.237-4.475c0.984-1.4,1.899-2.85,2.866-4.264
			c0.277-0.406,0.587-0.809,0.954-1.13c0.366-0.321,0.761-0.174,0.813,0.302c0.138,1.246,0.668,2.302,1.531,3.159
			c1.01,1.003,2.101,1.923,3.27,2.98c0.276-0.462,0.451-0.743,0.616-1.03c0.172-0.302,0.309-0.627,0.508-0.908
			c0.427-0.6,1.018-0.59,1.423,0.026c0.238,0.36,0.444,0.746,0.628,1.138c2.347,4.982,4.686,9.968,7.03,14.951
			c0.126,0.27,0.287,0.522,0.507,0.917c0.26-0.43,0.473-0.743,0.647-1.076c0.503-0.961,0.965-1.943,1.501-2.885
			c0.134-0.236,0.483-0.351,0.734-0.521c0.096,0.27,0.236,0.531,0.281,0.809c0.459,2.802,0.908,5.604,1.348,8.409
			c0.192,1.222,0.271,2.468,0.55,3.667c0.453,1.938,0.989,3.86,1.563,5.768c0.951,3.163,1.597,6.357,1.239,9.683
			c-0.055,0.517-0.072,1.057-0.246,1.536c-0.262,0.729-0.164,1.306,0.413,1.813c0.125,0.11,0.227,0.249,0.339,0.374
			C902.012,276.193,902.012,276.41,902.012,276.628z M806.736,406.122c0.385-0.462,0.692-0.824,0.991-1.193
			c1.538-1.908,2.112-4.019,1.209-6.372c-0.716-1.863-2.03-3.369-3.188-4.957c-0.702-0.962-0.773-0.912-1.901-0.459
			c-1.66,0.667-3.388,0.914-5.164,0.807c-0.216-0.013-0.419-0.235-0.629-0.361c0.164-0.177,0.299-0.456,0.498-0.515
			c0.891-0.264,1.797-0.481,2.704-0.683c1.537-0.341,2.983-0.809,3.793-2.334c0.109-0.205,0.294-0.377,0.464-0.544
			c3.133-3.071,4.752-6.999,5.844-11.09c0.811-3.041,1.274-6.222,1.475-9.366c0.27-4.233,0.367-8.495-0.348-12.725
			c-0.187-1.106-0.401-2.175-0.941-3.155c-0.689-1.254-1.41-2.491-2.117-3.736c-0.117-0.207-0.264-0.403-0.345-0.624
			c-0.646-1.772-1.831-2.955-3.693-3.4c-0.844-0.202-1.684-0.455-2.54-0.563c-1.113-0.14-2.242-0.216-3.362-0.204
			c-0.586,0.006-1.166,0.369-1.753,0.384c-2.822,0.072-5.563,0.571-8.265,1.355c-0.354,0.103-1.057,0.128-1.091,0.023
			c-0.187-0.567,0.365-0.733,0.736-0.961c1.912-1.174,4.027-1.669,6.233-1.893c3.581-0.361,7.142-0.516,10.677,0.427
			c1.01,0.27,1.885,0.669,2.485,1.526c1.158,1.655,2.297,3.325,3.423,5.003c1.461,2.179,2.303,4.658,2.426,7.204
			c0.223,4.615,0.1,9.248,0.094,13.874c-0.003,1.872-0.166,3.728-0.866,5.5c-0.14,0.354-0.146,0.765-0.187,1.152
			c-0.087,0.852,0.02,1.045,0.864,1.226c1.548,0.332,3.096,0.692,4.662,0.902c5.433,0.728,10.896,0.993,16.377,0.965
			c5.238-0.028,10.284-0.876,14.944-3.415c2.282-1.242,4.713-2.227,6.722-3.942c0.708-0.604,1.509-1.102,2.233-1.688
			c2.142-1.735,4.347-3.402,6.385-5.255c7.041-6.399,12.399-14.087,16.813-22.457c0.947-1.795,1.856-3.656,2.433-5.591
			c1.1-3.696,1.89-7.483,2.916-11.203c0.938-3.4,1.641-6.854,1.958-10.347c0.353-3.888,0.446-7.808,0.454-11.714
			c0.006-2.551-0.295-5.106-0.557-7.649c-0.092-0.887-0.354-1.847-1.248-2.327c-1.414-0.76-3.538,0.434-3.672,2.032
			c-0.11,1.319-0.197,2.642-0.282,3.963c-0.125,1.933-0.335,3.844-1.009,5.684c-0.363,0.99-0.59,2.03-0.929,3.03
			c-0.661,1.945-1.144,3.99-2.086,5.792c-1.918,3.667-3.944,7.296-6.2,10.762c-2.615,4.019-5.77,7.606-9.847,10.272
			c-0.761,0.497-1.392,1.204-2.176,1.651c-2.768,1.578-5.571,3.086-8.681,3.923c-1.507,0.406-2.992,0.89-4.49,1.329
			c-1.012,0.296-2.014,0.652-3.046,0.845c-1.362,0.255-2.753,0.357-4.127,0.557c-3.548,0.515-7.109,0.413-10.662,0.166
			c-1.496-0.104-3.011-0.381-4.447-0.813c-2.446-0.735-4.836-1.66-7.253-2.496c-1.386-0.479-2.686-1.104-3.806-2.073
			c-0.243-0.21-0.526-0.385-0.816-0.527c-0.395-0.193-0.677-0.107-0.708,0.396c-0.028,0.433-0.082,0.865-0.096,1.298
			c-0.046,1.389-0.063,2.778-0.134,4.165c-0.012,0.227-0.292,0.646-0.363,0.628c-0.321-0.078-0.677-0.223-0.894-0.459
			c-0.162-0.178-0.171-0.531-0.178-0.808c-0.068-2.605-0.083-5.213-0.191-7.816c-0.066-1.623-0.174-3.256-0.429-4.857
			c-0.43-2.698-0.933-5.389-1.517-8.058c-0.438-2.004-1.024-3.977-1.59-5.95c-0.514-1.789-1.219-3.532-1.602-5.347
			c-0.499-2.359-0.966-4.714-1.911-6.946c-0.084-0.198-0.134-0.412-0.191-0.621c-1.922-6.971-4.423-13.735-7.218-20.396
			c-0.215-0.513-0.533-0.753-1.073-0.763c-0.76-0.015-1.521-0.021-2.278-0.079c-1.643-0.123-3.282-0.267-4.921-0.427
			c-0.245-0.024-0.477-0.183-0.715-0.279c0.003-0.079,0.006-0.159,0.009-0.238c0.417-0.136,0.824-0.343,1.252-0.396
			c2.059-0.253,4.117-0.557,6.186-0.666c2.06-0.107,3.998-0.557,5.802-1.521c1.875-1.001,3.698-2.099,5.566-3.111
			c2.939-1.593,5.583-3.619,8.083-5.794c1.658-1.442,3.021-3.229,4.493-4.881c2.21-2.479,4.354-5.018,6.615-7.448
			c1.209-1.301,2.654-2.379,3.897-3.65c1.33-1.361,1.518-1.216-0.12-2.613c-1.163-0.992-2.528-1.745-3.775-2.644
			c-0.355-0.256-0.804-0.607-0.883-0.983c-0.305-1.452-0.442-2.952,0.228-4.342c0.705-1.464,1.532-2.867,2.286-4.307
			c0.301-0.575,0.559-1.174,0.817-1.77c0.177-0.407,0.029-0.63-0.424-0.606c-1.278,0.066-2.58,0.006-3.826,0.242
			c-1.482,0.281-2.922,0.799-4.369,1.252c-2.197,0.688-4.406,1.349-6.568,2.138c-1.174,0.428-2.262,1.092-3.384,1.658
			c-3.48,1.756-7.104,3.183-10.901,4.013c-5.554,1.214-11.158,2.186-16.834,2.679c-2.295,0.2-4.553-0.115-6.812-0.417
			c-0.256-0.034-0.475-0.347-0.71-0.529c0.258-0.144,0.501-0.36,0.776-0.412c0.422-0.079,0.864-0.049,1.299-0.058
			c1.455-0.03,2.911-0.054,4.366-0.086c0.391-0.009,0.781-0.031,1.171-0.063c0.475-0.038,0.673-0.26,0.457-0.737
			c-0.169-0.375-0.36-0.744-0.489-1.134c-0.331-1.003-0.65-2.01-0.941-3.024c-0.291-1.011-0.657-2.02-0.783-3.054
			c-0.193-1.592-0.207-3.206-0.305-4.811c-0.288-4.768-0.71-9.532-0.834-14.306c-0.143-5.448-0.021-10.904-0.016-16.357
			c0.006-7.219-0.383-14.416-1.201-21.587c-0.369-3.242-1.047-6.437-2.122-9.509c-0.642-1.83-1.72-3.503-2.472-5.3
			c-1.118-2.677-2.566-5.111-4.63-7.171c-0.379-0.378-0.724-0.829-0.958-1.308c-0.947-1.932-2.34-3.521-3.935-4.896
			c-2.101-1.813-4.322-3.488-6.505-5.205c-0.389-0.307-0.814-0.598-1.27-0.78c-1.305-0.525-2.672-0.907-3.945-1.495
			c-4.039-1.865-8.371-2.566-12.709-3.148c-1.668-0.225-3.422,0.031-5.119,0.229c-4.104,0.477-8.123,1.172-11.756,3.438
			c-1.931,1.203-4.204,1.842-6.247,2.883c-4.56,2.323-8.422,5.481-11.269,9.794c-0.271,0.411-0.341,0.769-0.103,1.261
			c0.347,0.715,0.644,1.478,0.808,2.252c0.436,2.047,0.256,4.115-0.021,6.159c-0.773,5.69-2.722,11.017-5.231,16.146
			c-0.741,1.515-1.554,3.029-2.567,4.367c-1.617,2.134-3.658,3.609-6.586,2.99c-0.189-0.04-0.391-0.033-0.586-0.024
			c-0.123,0.005-0.262,0.025-0.364,0.087c-0.38,0.231-0.731,0.51-1.121,0.722c-3.597,1.962-5.719,5.263-7.688,8.647
			c-0.987,1.696-1.681,3.568-2.467,5.379c-0.905,2.085-1.704,4.219-1.226,6.548c0.437,2.119,0.731,4.319,1.548,6.293
			c0.902,2.182,2.527,4.004,4.373,5.52c4.157,3.413,8.854,5.945,13.709,8.198c0.501,0.232,1.056,0.358,1.594,0.497
			c0.364,0.094,0.833,0.292,1.104,0.152c0.871-0.451,1.698-0.19,2.54-0.032c1.343,0.253,2.677,0.557,4.021,0.796
			c3.113,0.552,6.245,0.823,9.402,0.47c2.135-0.238,4.261-0.567,6.398-0.78c3.089-0.308,6.196-0.462,9.277-0.834
			c5.493-0.665,10.979-1.405,16.455-2.191c2.896-0.416,5.797-0.876,8.499-2.111c0.705-0.323,1.437-0.586,2.155-0.881
			c1.379-0.565,2.758-1.13,4.134-1.702c1.333-0.555,2.341-1.448,2.979-2.77c0.252-0.52,0.625-0.986,0.983-1.445
			c0.089-0.115,0.423-0.199,0.494-0.134c0.132,0.12,0.253,0.398,0.199,0.546c-0.146,0.401-0.385,0.768-0.587,1.148
			c-0.172,0.32-0.452,0.627-0.496,0.965c-0.105,0.823-0.543,1.42-1.149,1.896c-0.888,0.695-1.825,1.326-2.722,2.01
			c-0.25,0.19-0.471,0.447-0.632,0.717c-0.798,1.333-1.386,2.843-2.391,3.991c-2.718,3.106-5.748,5.911-9.147,8.28
			c-2.501,1.742-5.15,3.227-8.022,4.267c-1.809,0.654-3.664,1.178-5.48,1.811c-3.848,1.341-7.802,2.19-11.835,2.73
			c-3.481,0.467-6.968,0.601-10.461,0.252c-2.18-0.217-4.349-0.551-6.522-0.829c-1.815-0.232-3.552-0.787-5.035-1.821
			c-1.724-1.203-3.396-2.514-4.923-3.956c-3.929-3.713-6.82-8.251-9.75-12.739c-0.949-1.456-2.083-2.656-3.511-3.602
			c-0.287-0.189-0.636-0.286-1.103-0.489c0.059,0.37,0.042,0.577,0.125,0.729c0.305,0.562,0.664,1.094,0.964,1.658
			c1.155,2.179,2.391,4.301,3.762,6.363c2.692,4.054,5.774,7.749,9.14,11.258c3.675,3.832,7.876,6.607,13.194,7.384
			c2.054,0.3,4.15,0.473,6.222,0.431c2.556-0.053,5.104-0.402,7.657-0.602c2.728-0.211,5.466-0.356,8.122-1.064
			c1.606-0.428,3.182-0.971,4.778-1.438c0.953-0.279,1.939-0.457,2.877-0.778c2.333-0.801,4.729-1.484,6.949-2.533
			c3.148-1.487,6.186-3.219,9.22-4.936c1.027-0.581,1.909-1.423,2.845-2.162c1.46-1.154,2.907-2.324,4.363-3.482
			c0.413-0.328,0.802-0.721,1.626-0.636c-2.317,3.019-5.108,5.232-8.098,7.299c-3.001,2.074-6.088,3.965-9.411,5.6
			c0.883,0.621,1.761,1.162,2.665,1.652c2.688,1.461,5.01,3.357,6.912,5.755c2.185,2.755,4.173,5.644,6.063,8.61
			c2.897,4.546,5.568,9.21,7.712,14.161c2.494,5.763,5.177,11.444,7.021,17.478c1.616,5.281,2.751,10.629,2.798,16.162
			c0.053,6.299,0.045,12.599,0.02,18.897c-0.007,1.646-0.168,3.293-0.275,4.939c-0.063,0.972-0.364,1.979-0.2,2.906
			c0.323,1.817-0.096,3.478-0.588,5.174c-1.378,4.742-2.986,9.386-5.619,13.607c-0.532,0.853-1.172,1.646-1.629,2.534
			c-1.104,2.152-2.651,3.955-4.252,5.732c-0.871,0.967-1.666,2.001-2.52,2.983c-0.318,0.366-0.319,0.665-0.094,1.094
			c1.844,3.5,3.405,7.12,4.519,10.924c0.682,2.327,0.619,4.675,0.168,7.024c-0.103,0.531-0.332,1.013-0.981,1.176
			c-0.244,0.062-0.504,0.356-0.61,0.607c-0.166,0.393-0.29,0.838-0.286,1.26c0.02,2.387,0.039,4.775,0.149,7.159
			c0.054,1.159,0.729,2.118,1.376,3.048c0.108,0.156,0.367,0.341,0.507,0.307c0.15-0.037,0.295-0.299,0.35-0.489
			c0.144-0.499,0.247-1.012,0.349-1.521c0.513-2.55,3.865-3.71,5.604-2.554c2.698,1.796,4.774,3.996,5.408,7.304
			c0.075,0.387,0.284,0.761,0.492,1.103c0.076,0.125,0.341,0.205,0.5,0.181c0.095-0.015,0.207-0.268,0.217-0.42
			c0.027-0.41,0.13-0.877-0.021-1.225c-0.435-1.002-0.34-1.95,0.048-2.917c0.031-0.079,0.037-0.17,0.05-0.256
			c0.223-1.427,0.947-2.609,1.907-3.632c0.307-0.325,0.867-0.612,1.291-0.587c1.005,0.058,2.025,0.222,2.989,0.509
			c2.238,0.668,3.725,2.191,3.454,4.944c-0.077,0.797-0.046,1.605-0.035,2.408c0.007,0.523,0.313,0.654,0.796,0.538
			c0.612-0.146,0.621-0.677,0.716-1.121c0.296-1.397,0.447-2.835,0.859-4.193c0.412-1.355,1.158-2.587,2.377-3.411
			c0.283-0.192,0.737-0.287,1.07-0.219c0.646,0.131,1.252,0.445,1.893,0.62c1.743,0.478,3.154,1.316,3.716,3.177
			C806.295,405.15,806.484,405.516,806.736,406.122z M781.285,328.516c-0.076-2.664-0.139-6.073-0.285-9.479
			c-0.125-2.884-0.411-5.747-0.973-8.594c-0.737-3.748-1.395-7.51-2.654-11.126c-1.724-4.948-3.143-10.023-5.918-14.545
			c-0.078-0.128-0.121-0.278-0.188-0.414c-2.092-4.189-3.981-8.497-6.339-12.531c-1.995-3.415-4.499-6.537-6.836-9.746
			c-2.533-3.48-5.959-5.838-9.872-7.521c-0.431-0.186-0.993-0.277-1.44-0.175c-1.243,0.283-2.465,0.672-3.684,1.055
			c-3.645,1.145-7.311,2.217-11.103,2.738c-2.901,0.398-5.818,0.687-8.732,0.982c-2.072,0.21-4.148,0.433-6.228,0.496
			c-1.693,0.051-2.916,0.67-3.655,2.206c-0.591,1.228-1.251,2.426-1.778,3.68c-1.734,4.116-3.252,8.313-4.579,12.578
			c-0.586,1.882-1.303,3.729-1.764,5.641c-0.38,1.571-0.394,3.226-0.702,4.818c-0.667,3.439-1.166,6.875-0.99,10.405
			c0.183,3.669,0.502,7.313,1.14,10.932c0.191,1.089,0.194,2.212,0.415,3.292c0.751,3.676,1.577,7.337,2.344,11.009
			c0.635,3.038,1.246,6.079,2.395,8.978c0.438,1.105,0.732,2.325,1.408,3.267c0.866,1.203,1.561,2.484,2.312,3.747
			c1.42,2.387,2.894,4.743,4.415,7.066c4.712,7.193,10.613,13.189,17.977,17.692c3.02,1.846,6.012,3.74,9.09,5.482
			c1.65,0.935,3.422,1.686,5.202,2.353c2.861,1.072,5.855,1.56,8.907,1.752c1.018,0.065,2.09-0.004,3.028,0.595
			c0.156,0.1,0.48,0.032,0.682-0.058c0.332-0.149,0.66-0.343,0.933-0.582c3.292-2.889,6.33-6.008,8.787-9.658
			c1.723-2.562,3.358-5.171,4.452-8.075c1.201-3.189,2.405-6.367,2.355-9.875c-0.015-1.079,0.287-2.199,0.63-3.238
			c0.479-1.452,0.788-2.929,0.862-4.438C781.062,335.907,781.144,332.585,781.285,328.516z M702.029,404.976
			c0-0.033,0.001-0.065,0.001-0.099c1.586,0,3.173,0.021,4.758-0.006c1.606-0.028,3.216-0.052,4.817-0.174
			c2.574-0.197,5.139-0.521,7.713-0.706c4.134-0.299,8.277-0.464,12.285-1.701c2.323-0.717,4.645-1.399,6.733-2.709
			c2.413-1.513,2.957-5.184,1.567-7.072c-0.486-0.662-0.923-1.374-1.289-2.109c-0.351-0.708-0.766-1.46-0.83-2.221
			c-0.246-2.862,1.216-5.274,2.57-7.557c1.383-2.33,3.307-4.34,5.002-6.482c0.301-0.38,0.248-0.675-0.139-0.917
			c-0.311-0.194-0.654-0.335-0.96-0.535c-0.864-0.568-1.692-1.197-2.579-1.726c-1.528-0.909-3.136-1.691-4.626-2.656
			c-1.653-1.07-3.209-2.293-4.815-3.438c-4.25-3.028-8.037-6.557-11.415-10.533c-2.464-2.9-4.576-6.051-6.625-9.247
			c-0.62-0.968-1.216-1.954-1.866-2.901c-0.463-0.675-0.994-1.303-1.502-1.946c-0.32-0.404-0.695-0.466-1.129-0.163
			c-1.066,0.744-2.158,1.453-3.2,2.229c-4.288,3.192-7.947,6.944-10.828,11.502c-1.916,3.031-2.724,6.302-3.036,9.763
			c-0.355,3.922,0.42,7.638,2.562,10.954c1.029,1.594,2.37,2.988,3.6,4.448c0.671,0.796,1.443,1.508,2.098,2.316
			c0.57,0.704,0.39,1.09-0.474,1.348c-0.949,0.283-1.914,0.54-2.826,0.919c-0.691,0.289-1.297,0.777-1.965,1.132
			c-2.894,1.535-5.849,2.963-8.676,4.611c-1.75,1.021-3.323,2.35-4.951,3.572c-0.929,0.696-1.318,1.676-1.348,2.834
			c-0.014,0.558,0.162,0.917,0.687,1.107c0.915,0.333,1.503,0.998,1.889,1.868c0.114,0.258,0.271,0.5,0.356,0.766
			c0.173,0.529,0.5,0.67,1.059,0.704c1.031,0.063,2.081,0.178,3.069,0.458c1.643,0.467,1.987,1.072,1.874,2.775
			c-0.002,0.021-0.006,0.043-0.008,0.065c-0.045,0.526,0.174,0.911,0.686,1.035c0.545,0.133,1.107,0.253,1.666,0.268
			C695.298,404.844,698.664,404.904,702.029,404.976z M712.493,259.933c-0.456-0.257-0.885-0.563-1.36-0.753
			c-0.965-0.386-1.944-0.74-2.936-1.054c-2.166-0.686-4.201-1.677-6.086-2.907c-1.464-0.956-2.717-2.229-4.143-3.252
			c-1.01-0.724-2.122-1.325-3.244-1.865c-0.773-0.371-1.685-0.451-2.459-0.819c-2.995-1.423-5.977-2.876-8.933-4.379
			c-4.233-2.152-8.438-4.362-12.662-6.535c-0.747-0.385-1.526-0.707-2.409-1.111c-0.045,0.508-0.109,0.908-0.111,1.308
			c-0.01,2.172,0.059,4.347-0.029,6.515c-0.041,1.021-0.476,1.94-1.588,2.346c-0.309,0.113-0.615,0.345-0.822,0.603
			c-1.003,1.253-1.959,2.544-2.96,3.799c-0.385,0.482-0.31,0.816,0.137,1.2c0.889,0.764,1.802,1.513,2.607,2.359
			c4.357,4.575,8.72,9.146,13.012,13.782c4.115,4.443,8.039,9.081,12.772,12.896c2.43,1.957,5.041,3.688,7.58,5.507
			c0.294,0.21,0.73,0.247,0.977,0.49c0.82,0.808,1.905,0.804,2.969,1.176c0.322-1.895,0.632-3.685,0.932-5.477
			c0.365-2.18,0.579-4.39,1.422-6.465c0.663-1.631,1.245-3.284,1.38-5.065c0.018-0.233,0.314-0.448,0.49-0.665
			c0.341-0.422,0.802-0.79,1.007-1.269c0.459-1.072,0.721-2.229,1.189-3.295C710.256,264.662,711.366,262.357,712.493,259.933z
			 M877.533,229.939c-1.32,1.644-2.607,3.172-3.813,4.763c-2.229,2.943-4.06,6.103-4.987,9.719
			c-0.483,1.884-0.134,3.506,1.438,4.793c0.789,0.646,1.535,1.349,2.244,2.08c1.012,1.045,1.99,2.123,2.946,3.22
			c0.974,1.118,1.319,2.514,1.631,3.92c0.112,0.509,0.294,1.003,0.495,1.675c0.331-0.396,0.553-0.605,0.706-0.856
			c0.386-0.628,0.8-1.249,1.097-1.919c0.727-1.644,1.386-3.317,2.089-4.972c0.342-0.804,0.64-0.949,1.542-0.823
			c0.01,0.165,0.025,0.336,0.027,0.507c0.018,1.911,0.012,3.823,0.062,5.733c0.018,0.666,0.114,1.343,0.272,1.991
			c0.359,1.473,0.82,2.922,1.166,4.397c0.568,2.424,1.369,4.804,1.438,7.328c0.01,0.325,0.144,0.647,0.235,1.036
			c0.16-0.111,0.242-0.146,0.293-0.207c0.15-0.185,0.323-0.362,0.427-0.573c0.932-1.904,1.829-3.827,2.782-5.722
			c0.531-1.057,1.108-2.096,1.752-3.085c0.16-0.245,0.662-0.268,1.007-0.393c0.009,0.328,0.105,0.685,0.01,0.978
			c-0.288,0.884-0.638,1.749-0.988,2.611c-0.871,2.146-1.5,4.333-1.473,6.686c0.018,1.521,0.173,2.983,0.942,4.332
			c1.246,2.185,2.511,4.359,3.704,6.573c0.447,0.828,0.836,1.727,1.034,2.641c0.284,1.31,0.365,2.662,0.539,3.996
			c0.104,0.805,0.22,1.608,0.347,2.535c0.214-0.177,0.32-0.227,0.367-0.31c0.631-1.121,1.21-2.261,1.225-3.593
			c0.01-0.825,0.025-1.65,0.044-2.476c0.052-2.275-0.019-4.573,1.181-6.646c0.064-0.111,0.099-0.24,0.139-0.364
			c0.242-0.749,0.134-0.978-0.631-1.031c-0.572-0.04-0.75-0.356-0.661-0.808c0.129-0.65,0.27-1.327,0.563-1.913
			c1.521-3.029,1.836-6.119,0.862-9.4c-1.478-4.974-2.604-10.03-3.233-15.192c-0.128-1.053-0.47-2.079-0.713-3.117
			c-0.071,0.011-0.143,0.021-0.215,0.032c-0.05,0.088-0.108,0.173-0.148,0.266c-0.374,0.854-0.72,1.722-1.122,2.562
			c-0.335,0.698-0.833,0.733-1.283,0.104c-0.238-0.332-0.439-0.699-0.607-1.072c-2.054-4.567-4.093-9.142-6.153-13.706
			c-0.283-0.63-0.627-1.24-1.008-1.817c-0.297-0.45-0.591-0.4-0.788,0.101c-0.15,0.381-0.188,0.811-0.364,1.177
			c-0.127,0.265-0.371,0.591-0.617,0.646c-0.192,0.043-0.568-0.234-0.692-0.462C881.36,233.523,878.871,232.237,877.533,229.939z
			 M762.059,232.507c-0.043-0.084-0.086-0.168-0.129-0.253c-0.564,0.171-1.158,0.278-1.688,0.524
			c-3.334,1.553-6.816,2.553-10.478,2.935c-0.809,0.085-1.405,0.423-1.851,1.212c-0.505,0.894-1.189,1.716-1.922,2.442
			c-1.395,1.381-2.518,1.015-3.01-0.898c-0.032-0.126-0.065-0.252-0.093-0.379c-0.093-0.442-0.184-0.884-0.281-1.356
			c-0.388,0.02-0.733,0.028-1.077,0.057c-3.506,0.29-7.014,0.555-10.516,0.884c-3.111,0.293-6.225,0.593-9.321,1.006
			c-3.784,0.505-7.567,0.666-11.371,0.349c-3.311-0.275-6.622-0.549-9.931-0.848c-0.628-0.057-1.078,0.04-1.311,0.703
			c-0.105,0.298-0.32,0.569-0.529,0.815c-0.592,0.696-1.268,0.765-1.906,0.115c-0.435-0.441-0.781-0.981-1.112-1.511
			c-0.39-0.624-0.676-1.316-1.089-1.922c-0.572-0.839-1.459-1.111-2.457-1.168c0.138,0.42,0.309,0.79,0.545,1.112
			c1.438,1.96,2.885,3.913,4.342,5.859c0.313,0.416,0.654,0.815,1.024,1.179c0.481,0.473,0.647,0.371,0.916-0.219
			c0.317-0.697,0.665-1.42,1.164-1.987c0.978-1.112,1.992-0.841,2.441,0.586c0.414,1.315,0.426,2.659,0.116,3.989
			c-0.104,0.442-0.416,0.836-0.683,1.348c0.042,0.046,0.171,0.217,0.325,0.36c2.369,2.191,5.166,3.707,8.299,4.23
			c3.326,0.558,6.729,0.759,10.106,0.877c1.952,0.068,3.927-0.284,5.88-0.536c2.191-0.282,4.379-0.61,6.549-1.018
			c2.286-0.43,4.451-1.256,6.579-2.194c0.642-0.283,0.976-0.62,1.048-1.31c0.17-1.634,0.656-3.183,1.389-4.65
			c0.45-0.901,1.438-1.092,2.119-0.373c0.287,0.305,0.515,0.709,0.646,1.109c0.195,0.593,0.274,1.223,0.414,1.836
			c0.098,0.43,0.213,0.854,0.375,1.501c1.67-1.077,3.278-1.938,4.682-3.056c4.066-3.241,7.759-6.894,11.291-10.707
			C761.741,232.952,761.893,232.723,762.059,232.507z M869.395,250.32c-0.079,0.05-0.158,0.1-0.237,0.148
			c0.077,0.345,0.128,0.697,0.234,1.033c0.532,1.673,1.202,3.313,1.591,5.018c0.574,2.517,0.681,5.071-0.114,7.591
			c-0.327,1.034-0.655,2.068-0.938,3.114c-0.549,2.033-0.503,4.045,0.396,5.978c1.08,2.32,2.218,4.613,3.289,6.938
			c0.287,0.622,0.513,1.3,0.615,1.975c0.385,2.554,0.715,5.115,1.053,7.676c0.338,2.555,1.398,4.72,3.369,6.417
			c0.971,0.836,2.067,1.323,3.358,1.4c0.864,0.052,1.49-0.179,1.905-1.016c0.482-0.974,1.217-1.766,2.277-2.129
			c1.486-0.509,2.556-0.358,3.48,0.87c0.234,0.313,0.457,0.66,0.764,0.882c0.213,0.153,0.631,0.253,0.838,0.146
			c1.039-0.537,2.077-1.098,3.036-1.764c0.402-0.28,0.785-0.812,0.864-1.281c0.116-0.686,0.011-1.428-0.107-2.128
			c-0.192-1.13-0.474-2.244-0.714-3.366c-0.095-0.444-0.103-0.925-0.281-1.331c-0.539-1.227-1.061-2.473-1.736-3.624
			c-1.755-2.988-3.396-6.01-3.936-9.498c-0.037-0.24-0.224-0.458-0.341-0.687c-0.072,0.006-0.145,0.012-0.217,0.018
			c-0.234,0.682-0.585,1.347-0.678,2.046c-0.201,1.505-0.26,3.027-0.4,4.541c-0.031,0.346-0.157,0.683-0.284,1.206
			c-0.282-0.325-0.502-0.472-0.563-0.668c-0.223-0.714-0.513-1.439-0.551-2.172c-0.042-0.788,0.246-1.589,0.249-2.385
			c0.003-0.628-0.007-1.44-0.372-1.843c-0.644-0.709-0.795-1.508-0.953-2.346c-0.186-0.98-0.277-1.979-0.508-2.948
			c-0.799-3.372-1.639-6.734-2.469-10.1c-0.017-0.069-0.087-0.126-0.193-0.273c-0.269,0.328-0.531,0.585-0.716,0.888
			c-1.013,1.662-2.247,3.2-2.836,5.103c-0.144,0.465-0.43,0.882-1.034,0.793c-0.571-0.084-0.709-0.533-0.744-1.003
			c-0.101-1.32-0.191-2.641-0.25-3.963c-0.069-1.602-0.443-3.119-1.462-4.37c-1.149-1.412-2.396-2.747-3.628-4.09
			C870.158,250.796,869.75,250.583,869.395,250.32z M782.908,411.355c-0.058-1.487-0.703-2.784-1.159-4.139
			c-0.74-2.198-2.484-3.277-4.465-4.049c-1.171-0.456-2.528,0.525-2.629,1.779c-0.06,0.735-0.03,1.479-0.112,2.211
			c-0.21,1.874,0.596,3.295,1.98,4.425c0.696,0.568,1.481,1.033,2.248,1.509c0.748,0.463,1.492,0.952,2.295,1.297
			c0.749,0.32,1.208,0.058,1.42-0.739C782.687,412.9,782.771,412.121,782.908,411.355z M786.561,407.791
			c0.034,0.005,0.068,0.01,0.104,0.015c0,0.304,0.01,0.607-0.002,0.912c-0.093,2.324,0.881,4.277,2.125,6.138
			c0.049,0.072,0.098,0.179,0.164,0.196c0.22,0.057,0.499,0.183,0.663,0.1c1.132-0.571,2.016-1.41,2.605-2.551
			c1.137-2.196,1.144-4.604,1.319-6.979c0.009-0.114-0.055-0.256-0.128-0.351c-0.821-1.061-1.817-1.851-3.183-2.096
			c-1.636-0.294-2.852,0.385-3.286,1.99C786.713,406.014,786.682,406.915,786.561,407.791z M797.831,410.322
			c0.048,0.005,0.097,0.009,0.146,0.013c0,0.869-0.016,1.738,0.005,2.606c0.019,0.792,0.349,1.015,1.034,0.634
			c3.298-1.833,5.62-4.331,5.66-8.382c0.006-0.619-0.186-1.052-0.711-1.344c-0.337-0.188-0.714-0.316-1.021-0.543
			c-1.858-1.379-3.771-0.779-4.436,1.408c-0.051,0.165-0.112,0.332-0.131,0.503C798.19,406.919,798.012,408.621,797.831,410.322z
			 M675.816,405.082c0.014,0.064,0.027,0.13,0.041,0.194c0.246,0.055,0.496,0.169,0.739,0.156c1.426-0.075,2.858-0.116,4.274-0.289
			c2.38-0.29,4.689-0.863,6.797-2.073c0.435-0.249,0.466-0.604,0.052-0.876c-0.141-0.093-0.313-0.153-0.479-0.189
			c-2.77-0.611-5.514-0.543-8.21,0.372c-0.884,0.3-1.613,0.806-2.028,1.712c-0.131,0.285-0.47,0.48-0.728,0.7
			C676.138,404.905,675.971,404.985,675.816,405.082z M701.089,184.836c-0.068-0.044-0.138-0.089-0.206-0.134
			c-0.188,0.086-0.403,0.136-0.556,0.263c-0.729,0.605-1.478,1.194-2.148,1.86c-0.714,0.708-1.493,1.316-2.498,1.391
			c-1.15,0.084-1.642,0.71-1.818,1.738c-0.059,0.341-0.104,0.685-0.182,1.021c-0.109,0.48-0.19,0.976-0.377,1.427
			c-0.244,0.592-0.139,0.905,0.484,1.045c0.663,0.148,1.239-0.042,1.746-0.479c1.731-1.494,3.351-3.097,4.391-5.164
			C700.4,186.859,700.706,185.828,701.089,184.836z M676.638,398.856c-0.02-0.08-0.038-0.16-0.058-0.241
			c-0.561,0.138-1.143,0.217-1.675,0.424c-1.212,0.472-2.274,1.181-2.996,2.295c-0.317,0.489-0.483,1.038-0.084,1.577
			c0.319,0.43,1.16,0.666,1.722,0.487c0.266-0.084,0.535-0.191,0.77-0.341c0.712-0.455,1.39-0.965,2.115-1.396
			c0.531-0.315,1.094-0.605,1.68-0.792c0.945-0.303,1.937-0.467,2.877-0.782c0.338-0.114,0.726-0.453,0.828-0.773
			c0.07-0.221-0.261-0.637-0.502-0.875c-0.556-0.548-1.251-0.369-1.907-0.229C678.48,398.408,677.561,398.64,676.638,398.856z
			 M698.819,176.464c2.183-0.725,4.476-6.896,3.222-8.369c-0.137,0.209-0.292,0.385-0.381,0.59c-0.85,1.964-1.714,3.921-2.51,5.906
			C698.936,175.128,698.938,175.752,698.819,176.464z M679.527,395.478c-0.048-0.083-0.096-0.165-0.143-0.248
			c-0.35,0.531-0.625,0.345-0.909,0.041c-0.415-0.443-0.869-0.734-1.542-0.554c-1.35,0.362-2.448,1.068-3.232,2.229
			c-0.129,0.192-0.17,0.443-0.321,0.855c1.151-0.348,2.117-0.625,3.073-0.931c0.86-0.276,1.718-0.564,2.561-0.892
			C679.219,395.9,679.357,395.649,679.527,395.478z M743.274,245.098c-0.089-0.013-0.179-0.026-0.269-0.04
			c-0.26,0.716-0.543,1.425-0.756,2.154c-0.039,0.132,0.187,0.461,0.344,0.505c0.409,0.114,1.057-0.438,1.012-0.871
			C743.545,246.258,743.39,245.68,743.274,245.098z M700.975,243.545c-0.09-0.03-0.18-0.061-0.27-0.091
			c-0.277,0.342-0.568,0.674-0.83,1.027c-0.504,0.683-0.429,1.122,0.296,1.536c0.114,0.065,0.505-0.07,0.519-0.154
			C700.816,245.096,700.887,244.319,700.975,243.545z M744.844,238.155c0.537-0.584,1.017-1.105,1.602-1.741
			c-0.842-0.146-1.557-0.376-2.011,0.2C744.04,237.116,744.554,237.596,744.844,238.155z"/>
		<path fill-rule="evenodd" clip-rule="evenodd" fill="#FFFFFF" d="M763.164,174.879c-0.342,0.089-0.686,0.178-1.062,0.275
			c0.025,0.05,0.046,0.132,0.097,0.183c3.149,3.085,4.912,6.906,6.066,11.101c1.273,4.623,1.07,9.337,0.983,14.034
			c-0.028,1.529-0.601,3.052-0.953,4.571c-0.178,0.769-0.308,1.581-0.667,2.266c-0.26,0.493-0.855,0.812-1.313,1.196
			c-0.281,0.237-0.577,0.457-0.875,0.673c-1.035,0.75-2.051,1.529-3.119,2.23c-1.057,0.694-2.242,0.95-3.521,0.973
			c-2.713,0.047-5.404-0.114-7.948-1.098c-2.786-1.077-5.171-2.752-5.863-5.856c-0.679-3.043-0.804-6.155-0.142-9.245
			c0.324-1.519,0.673-3.031,1.035-4.54c0.555-2.311,1.452-4.502,2.286-6.722c0.895-2.382,2.242-4.492,3.538-6.638
			c0.903-1.494,2.319-2.502,3.847-3.597c-0.587-0.097-1.055-0.168-1.521-0.253c-1.515-0.274-3.032-0.532-4.54-0.84
			c-0.929-0.19-1.123-0.702-0.53-1.474c0.391-0.509,0.862-0.999,1.396-1.348c1.267-0.828,2.582-1.585,3.899-2.332
			c0.329-0.187,0.747-0.325,1.112-0.301c0.275,0.019,0.608,0.284,0.763,0.534c0.072,0.116-0.156,0.549-0.354,0.679
			c-0.664,0.438-1.375,0.806-2.229,1.292c0.609,0.32,1.078,0.625,1.588,0.826c2.098,0.827,4.21,1.616,6.31,2.436
			c0.593,0.231,1.163,0.521,1.743,0.783C763.183,174.752,763.174,174.815,763.164,174.879z M746.445,202.36
			c-0.235,1.185-0.427,2.215-0.001,3.133c1.065,2.298,2.779,3.965,5.242,4.732c0.591,0.184,1.239,0.217,1.864,0.254
			c1.728,0.104,3.516,0.484,5.171,0.175c1.941-0.363,3.778-1.313,5.632-2.081c0.267-0.11,0.515-0.622,0.52-0.952
			c0.039-2.534,0.056-5.071-0.018-7.604c-0.019-0.617-0.397-1.224-0.657-1.97c-1.641,1.824-2.811,3.785-4.893,4.829
			c-2.054,1.029-4.261,1.206-6.501,1.357C750.481,204.391,748.421,203.724,746.445,202.36z M758.43,180.353
			c-0.068-0.771-0.103-1.443-0.195-2.106c-0.081-0.576-0.412-0.93-1.035-0.981c-0.365-0.03-0.733-0.096-1.084-0.2
			c-0.655-0.195-1.172-0.033-1.645,0.455c-1.363,1.403-2.313,3.083-3.175,4.805c-0.599,1.196-1.029,2.477-1.554,3.712
			c-0.441,1.039-0.946,2.054-1.354,3.106c-0.313,0.808-0.1,1.185,0.76,1.352c1.265,0.244,2.557,0.212,3.646-0.525
			C756.222,187.648,758.305,184.519,758.43,180.353z"/>
		<path fill-rule="evenodd" clip-rule="evenodd" fill="#FFFFFF" d="M820.502,250.72c-1.082,0.122-2.438,0.292-3.798,0.412
			c-0.276,0.025-0.568-0.14-0.854-0.217c0.178-0.241,0.307-0.568,0.544-0.705c0.387-0.221,0.834-0.373,1.273-0.454
			c1.022-0.188,2.053-0.344,3.086-0.451c0.397-0.042,0.823,0.04,1.217,0.141c0.893,0.229,1.281,0.739,1.047,1.634
			c-0.313,1.187-0.76,2.342-1.197,3.491c-0.254,0.666-0.563,1.319-0.931,1.927c-0.131,0.215-0.513,0.278-0.78,0.41
			c-0.085-0.269-0.299-0.576-0.232-0.799c0.309-1.033,0.688-2.047,1.059-3.061c0.178-0.487,0.439-0.947,0.58-1.443
			C821.713,250.908,821.507,250.691,820.502,250.72z"/>
		<path fill-rule="evenodd" clip-rule="evenodd" fill="#FFFFFF" d="M710.104,228.042c0.074-0.121,0.164-0.423,0.367-0.573
			c1.176-0.872,2.364-1.732,3.582-2.547c0.443-0.297,0.865-0.097,1.177,0.332c0.272,0.374,0.038,0.641-0.212,0.833
			c-1.18,0.913-2.359,1.828-3.58,2.684C710.82,229.202,710.126,228.858,710.104,228.042z"/>
		<path fill-rule="evenodd" clip-rule="evenodd" fill="#FFFFFF" d="M699.955,225.873c-0.096,0.137-0.285,0.618-0.458,0.612
			c-0.331-0.01-0.807-0.219-0.948-0.488c-0.346-0.658-0.56-1.391-0.768-2.11c-0.051-0.177,0.068-0.53,0.211-0.604
			c0.187-0.098,0.521-0.076,0.713,0.032C699.609,223.829,699.83,224.728,699.955,225.873z"/>
		<path fill-rule="evenodd" clip-rule="evenodd" fill="#FFFFFF" d="M670.072,249.059c0.063-0.849,0.489-1.297,1.12-1.516
			c0.465-0.161,0.971-0.26,1.462-0.278c1.538-0.059,3.078-0.074,4.617-0.084c0.252-0.002,0.578,0.031,0.739,0.186
			c0.238,0.226,0.421,0.561,0.491,0.879c0.021,0.094-0.412,0.404-0.649,0.418c-1.062,0.062-2.127,0.042-3.19,0.072
			c-0.78,0.021-1.561,0.068-2.341,0.119c-0.534,0.035-0.823,0.312-0.655,0.863c0.169,0.557,0.398,1.096,0.594,1.645
			c0.303,0.857,0.605,1.714,0.894,2.575c0.061,0.182,0.097,0.389,0.073,0.574c-0.025,0.197-0.135,0.383-0.207,0.574
			c-0.207-0.086-0.481-0.116-0.604-0.27c-0.226-0.28-0.392-0.622-0.53-0.959c-0.513-1.24-1.013-2.486-1.498-3.737
			C670.238,249.74,670.152,249.336,670.072,249.059z"/>
	</g>
	<g>
		<path fill-rule="evenodd" clip-rule="evenodd" fill="#FFFFFF" d="M235.485,139.732c0.731,0.108,1.472,0.172,2.19,0.332
			c1.537,0.342,3.061,0.74,4.592,1.103c4.772,1.13,9.33,2.843,13.746,4.968c2.174,1.046,4.295,2.187,6.201,3.657
			c3.244,2.502,6.49,5.013,9.592,7.688c1.688,1.457,3.156,3.197,4.582,4.927c1.652,2.006,3.248,4.074,4.682,6.24
			c1.078,1.632,1.957,3.416,2.759,5.208c1.737,3.889,3.243,7.874,4.077,12.067c0.693,3.484,1.061,7.021,1.058,10.573
			c-0.003,3.407-0.491,6.77-1.687,9.976c-0.506,1.353-0.408,2.488,0.391,3.665c0.708,1.041,1.323,2.146,1.953,3.239
			c1.242,2.151,1.954,4.463,2.119,6.948c0.055,0.838-0.166,1.542-0.726,2.17c-0.838,0.939-1.876,1.612-3.048,1.964
			c-2.107,0.633-4.254,1.134-6.389,1.677c-0.494,0.126-1.002,0.2-1.366,0.271c-1.206,1.691-2.341,3.282-3.478,4.873
			c0.041,0.06,0.084,0.121,0.125,0.181c0.343-0.144,0.695-0.267,1.023-0.435c1.615-0.822,3.211-1.682,4.836-2.481
			c2.414-1.187,4.992-1.911,7.548-2.717c3.302-1.042,6.548-2.259,9.821-3.39c1.86-0.644,3.717-1.301,5.598-1.877
			c0.703-0.216,1.473-0.31,2.209-0.305c1.389,0.007,2.092,0.901,1.787,2.265c-0.578,2.575-1.227,5.134-1.828,7.704
			c-0.568,2.427-0.281,3.008,1.922,4.133c0.877,0.447,1.719,0.963,2.605,1.386c0.524,0.25,1.099,0.407,1.663,0.558
			c1.118,0.3,2.161,0.714,2.882,1.685c0,0.631,0,1.262,0,1.894c-0.596,1.341-1.705,2.142-2.965,2.75
			c-2.431,1.174-4.597,2.738-6.74,4.36c-2.586,1.959-4.621,4.403-6.449,7.036c-2.677,3.855-5.385,7.692-7.926,11.637
			c-3.008,4.669-6.751,8.607-11.08,12.05c-2.202,1.751-4.443,3.405-7.047,4.512c-0.176,0.074-0.329,0.197-0.51,0.309
			c0.219,2.343,0.453,4.654,0.643,6.969c0.305,3.734,0.547,7.475,0.869,11.207c0.503,5.837-0.397,11.557-1.268,17.295
			c-0.816,5.39-2.105,10.67-3.318,15.971c-0.123,0.533-0.203,1.077-0.324,1.74c0.508,0.184,0.971,0.355,1.436,0.52
			c4.713,1.664,8.678,4.391,11.389,8.618c1.699,2.65,3.121,5.524,3.541,8.706c0.471,3.561,0.672,7.164,0.171,10.736
			c-0.407,2.898-1.444,5.643-2.543,8.35c-0.903,2.227-1.833,4.443-2.719,6.678c-0.382,0.963-0.352,0.986,0.451,1.68
			c2.208,1.91,4.423,3.799,6.866,5.422c2.053,1.364,3.713,3.177,5.105,5.213c0.354,0.515,0.623,1.1,0.85,1.685
			c0.378,0.981,0.15,1.71-0.818,2.156c-0.883,0.405-1.851,0.644-2.799,0.883c-0.84,0.212-1.703,0.329-2.557,0.474
			c-0.6,0.103-0.877,0.45-0.918,1.048c-0.063,0.905-0.136,1.81-0.247,2.71c-0.046,0.369-0.204,0.724-0.348,1.202
			c-0.816-1.423-0.366-6.938,0.653-8.386c0.131,0.688,0.246,1.283,0.376,1.965c1.734-0.051,3.423-0.058,5.048-0.591
			c1.01-0.331,1.162-0.64,0.68-1.564c-0.396-0.761-0.842-1.548-1.444-2.139c-1.264-1.239-2.612-2.4-3.987-3.517
			c-2.355-1.915-4.758-3.771-7.143-5.651c-0.242-0.192-0.492-0.375-0.762-0.579c-1.373,1.455-2.271,3.353-4.199,4.133
			c-0.076-0.064-0.15-0.129-0.226-0.193c0.243-0.33,0.454-0.691,0.737-0.985c2.822-2.942,4.475-6.569,5.895-10.296
			c1.064-2.795,1.918-5.672,2.822-8.527c0.48-1.516,0.576-3.094,0.549-4.682c-0.038-2.13-0.039-4.262-0.115-6.39
			c-0.021-0.614-0.169-1.249-0.391-1.825c-0.578-1.508-1.23-2.988-1.851-4.48c-0.767-1.844-1.851-3.469-3.276-4.877
			c-1.572-1.557-3.115-3.166-5.111-4.172c-1.578-0.795-3.249-1.406-4.881-2.092c-0.814-0.342-1.623-0.273-2.406,0.103
			c-0.887,0.427-1.781,0.843-2.642,1.321c-4.481,2.498-8.853,5.178-13,8.2c-5.653,4.12-10.087,9.383-13.942,15.165
			c-0.722,1.082-1.426,2.178-2.115,3.281c-0.313,0.5-0.588,1.026-0.85,1.557c-0.548,1.112-0.514,2.078,0.303,3.168
			c2.517,3.355,4.423,7.078,6.252,10.846c1.036,2.131,1.191,4.385,1.342,6.67c0.107,1.65,0.238,3.301,0.431,4.943
			c0.193,1.654,0.98,3.061,2.021,4.338c2.725,3.342,6.107,5.926,9.673,8.275c0.808,0.531,1.783,0.836,2.717,1.137
			c3.166,1.023,6.411,1.653,9.745,1.754c1.699,0.051,2.346-0.417,2.871-2.031c0.182-0.561,0.302-1.143,0.434-1.719
			c0.223-0.961,0.277-1.879-0.697-2.517c-0.08-0.052-0.092-0.202-0.166-0.382c0.528-0.396,1.041-0.166,1.539,0.006
			c1.752,0.602,3.48,1.276,5.252,1.804c1.66,0.493,3.358,0.856,5.049,1.235c1.401,0.313,2.746,0.225,3.908-0.84
			c-0.078,0.932-0.628,1.48-1.416,1.606c-0.998,0.159-2.045,0.253-3.039,0.13c-2.709-0.332-5.318-1.105-7.869-2.068
			c-0.469-0.176-0.948-0.322-1.504-0.508c-0.117,0.395-0.227,0.681-0.285,0.977c-0.171,0.851-0.297,1.711-0.483,2.557
			c-0.333,1.525-1.081,2.214-2.624,2.49c-1.934,0.346-3.855,0.145-5.771-0.127c-3.815-0.541-7.332-1.988-10.506-4.069
			c-2.02-1.324-3.723-3.149-5.494-4.829c-0.852-0.809-1.516-1.813-2.287-2.711c-1.477-1.724-2.111-3.73-2.195-5.98
			c-0.065-1.771-0.244-3.54-0.434-5.304c-0.254-2.34-0.943-4.57-2.122-6.599c-1.603-2.76-3.319-5.453-4.995-8.17
			c-0.186-0.301-0.412-0.578-0.633-0.855c-0.768-0.961-0.844-0.928-1.998-0.67c-4.227,0.945-8.449,1.908-12.7,2.73
			c-1.336,0.26-2.752,0.117-4.132,0.135c-1.337,0.018-2.676,0.004-4.117,0.004c-0.1,0.951-0.206,1.92-0.304,2.889
			c-0.305,3.029-0.858,6.025-1.831,8.902c-1.405,4.148-3.137,8.166-5.686,11.775c-0.909,1.289-1.789,2.6-2.717,3.875
			c-0.506,0.697-0.623,1.435-0.416,2.24c0.885,3.438,0.924,6.947,0.871,10.46c-0.012,0.813-0.16,1.659-0.432,2.425
			c-0.516,1.459-1.305,1.94-2.82,1.658c-1.23-0.229-2.451-0.596-3.62-1.047c-1.884-0.73-3.6-1.78-5.157-3.08
			c-1.017-0.846-1.043-0.844-2.097,0.01c-1.501,1.218-3.013,2.424-4.48,3.682c-1.716,1.471-3.571,2.725-5.563,3.785
			c-0.237,0.126-0.44,0.313-0.66,0.471c-0.237,0-0.474,0-0.71,0c-0.789-0.57-1.582-1.134-2.365-1.71
			c-1.822-1.339-3.069-3.154-4.161-5.09c-0.388-0.687-0.719-1.405-1.097-2.096c-0.47-0.858-0.524-0.808-1.496-0.747
			c-1.885,0.121-3.779,0.266-5.663,0.193c-1.897-0.072-3.535-1.045-5.109-2.025c-0.869-0.54-1.095-1.468-0.821-2.407
			c0.527-1.812,1.105-3.61,1.746-5.385c0.373-1.034,0.91-2.008,1.378-3.02c-0.604-1.19-1.265-2.354-1.798-3.573
			c-1.161-2.652-1.623-5.512-2.379-8.285c-1.371-5.03-1.797-10.157-1.707-15.348c0.025-1.373-0.027-2.748-0.045-4.216
			c-0.582,0-1.037-0.02-1.492,0.003c-2.4,0.123-4.802,0.395-7.197,0.35c-3.19-0.057-6.408-0.138-9.555-0.604
			c-5.609-0.83-11.189-1.882-16.668-3.398c-3.197-0.885-6.455-0.974-9.738-0.741c-2.965,0.21-5.827,0.96-8.703,1.642
			c-6.176,1.465-12.293,1.133-18.337-0.689c-4.388-1.324-8.007-3.865-10.968-7.326c-3.139-3.667-5.92-7.589-8.014-11.957
			c-1.992-4.162-3.164-8.563-3.756-13.131c-0.08-0.616-0.283-1.217-0.429-1.824c0-1.814,0-3.63,0-5.445
			c0.222-1.275,0.476-2.547,0.659-3.828c0.685-4.787,2.52-9.1,5.381-12.973c2.187-2.962,4.725-5.606,7.484-8.043
			c1.889-1.668,4.139-2.732,6.363-3.832c2.617-1.295,5.296-2.434,8.166-3.074c2.563-0.571,5.151-0.756,7.76-0.602
			c2.241,0.133,4.513,0.17,6.707,0.586c4.715,0.893,8.959,2.934,12.826,5.783c2.576,1.9,5.053,3.906,7.375,6.109
			c3.838,3.645,7.85,7.086,12.188,10.124c0.993,0.695,2.046,1.303,3.235,2.054c-0.117-0.955-0.221-1.685-0.293-2.416
			c-0.605-6.16-1.218-12.318-1.799-18.48c-0.137-1.453-0.245-2.916-0.225-4.371c0.085-5.879,0.264-11.762,1.117-17.584
			c0.417-2.84,1.182-5.627,1.779-8.441c0.457-2.159,0.885-4.324,1.35-6.48c0.161-0.744,0.004-1.404-0.368-2.038
			c-2.137-3.638-4.276-7.273-6.409-10.913c-1.006-1.718-2.32-3.179-3.726-4.573c-1.401-1.389-2.756-2.823-4.176-4.191
			c-1.394-1.344-1.101-3.294,0.435-4.234c1.068-0.655,2.215-1.184,3.341-1.741c0.491-0.244,1.048-0.366,1.522-0.634
			c0.871-0.491,1.053-0.918,0.727-1.861c-0.475-1.377-0.928-2.777-1.568-4.079c-0.875-1.778-1.162-3.671-1.406-5.587
			c-0.108-0.857-0.197-1.731-0.16-2.591c0.051-1.189,0.396-1.422,1.579-1.345c1.12,0.073,2.14,0.417,3.144,0.932
			c1.609,0.827,3.273,1.548,4.918,2.305c0.249,0.114,0.516,0.196,0.782,0.266c0.968,0.253,1.276,0.072,1.571-0.872
			c0.316-1.015,0.594-2.045,0.977-3.034c0.549-1.415,1.483-2.479,2.955-3.042c1.078-0.414,2.089-0.424,3.023,0.284
			c0.783,0.595,1.554,1.215,2.273,1.886c3.09,2.877,6.15,5.784,9.238,8.662c0.808,0.752,1.666,1.452,2.521,2.149
			c1.261,1.026,1.303,1.028,2.561-0.09c1.209-1.074,2.393-2.178,3.586-3.27c0.204-0.187,0.385-0.41,0.613-0.555
			c0.951-0.603,1.427-1.421,1.607-2.567c0.193-1.229,0.934-2.283,1.926-3.035c0.557-0.421,1.313-0.58,2.075-0.897
			c0.001-0.017,0.032-0.171,0.011-0.318c-0.289-2.026-0.657-4.043-0.867-6.077c-0.344-3.333-0.694-6.673-0.832-10.018
			c-0.092-2.192,0.074-4.413,0.32-6.6c0.675-5.99,2.359-11.736,4.504-17.349c0.419-1.098,1.047-2.117,1.592-3.166
			c0.635-1.222,1.211-2.483,1.945-3.644c0.967-1.528,1.959-3.061,3.121-4.439c3.788-4.491,8.211-8.291,13.074-11.574
			c2.025-1.368,4.045-2.757,6.158-3.978c2.987-1.726,6.255-2.771,9.604-3.567c1.264-0.3,2.513-0.665,3.777-0.96
			c3.933-0.918,7.928-1.333,11.957-1.462c0.584-0.019,1.164-0.128,1.747-0.195C230.434,139.732,232.959,139.732,235.485,139.732z
			 M202.248,228.079c0.879-0.089,1.641-0.208,2.404-0.238c2.404-0.093,4.811-0.159,7.216-0.223c4.14-0.108,8.279-0.279,12.419-0.293
			c4.574-0.016,9.15,0.084,13.725,0.198c1.928,0.048,3.857,0.212,5.777,0.409c2.649,0.271,5.13,1.218,7.621,2.086
			c2.121,0.738,4.232,1.506,6.316,2.341c1.003,0.402,1.883,0.341,2.814-0.154c1.705-0.906,3.431-1.775,5.156-2.641
			c0.74-0.371,1.485-0.737,2.258-1.029c3.253-1.231,6.62-2.021,10.036-2.664c3.25-0.61,6.474-1.37,9.694-2.115
			c0.719-0.167,1.407-0.509,2.074-0.842c0.834-0.417,1.195-1.138,1.009-2.062c-0.289-1.427-0.559-2.864-0.948-4.265
			c-0.381-1.369-0.961-2.664-1.811-3.83c-0.693-0.953-1.355-1.932-1.965-2.939c-0.449-0.742-1.036-1.227-1.898-1.188
			c-1.656,0.074-2.659-0.798-3.334-2.174c-0.239-0.49-0.473-1.01-0.563-1.542c-0.197-1.164-0.396-2.34-0.428-3.517
			c-0.125-4.742-0.789-9.427-1.372-14.123c-0.453-3.644-0.802-7.3-0.54-10.974c0.105-1.485,0.404-2.961,0.688-4.427
			c0.109-0.566,0.372-1.102,0.99-1.386c0.715-0.329,0.864-0.586,0.562-1.258c-0.386-0.854-0.817-1.727-1.409-2.444
			c-1.907-2.311-3.832-4.614-5.871-6.809c-3.315-3.566-7.135-6.593-11.039-9.459c-2.457-1.805-5.201-3.33-8.013-4.518
			c-3.362-1.419-6.917-2.4-10.421-3.463c-2.107-0.64-4.268-1.123-6.424-1.578c-1.185-0.25-2.418-0.451-3.618-0.403
			c-3.624,0.145-7.245,0.412-10.865,0.654c-2.125,0.142-4.247,0.347-6.293,0.989c-3.685,1.153-7.392,2.245-11.032,3.524
			c-1.846,0.648-3.664,1.493-5.327,2.521c-5.587,3.452-10.813,7.38-15.259,12.265c-0.795,0.874-1.615,1.738-2.313,2.688
			c-3.32,4.521-5.89,9.443-7.371,14.859c-1.092,3.986-1.983,8.031-2.842,12.075c-0.391,1.841-0.609,3.739-0.688,5.62
			c-0.168,4.03,0.291,8.034,0.787,12.028c0.635,5.107,2.361,9.869,4.588,14.475c2.297,4.752,5.506,8.859,9.33,12.421
			c3.475,3.237,7.463,5.802,11.926,7.554c1.025,0.403,2.033,0.857,3.033,1.321c3.289,1.523,6.523,3.178,9.867,4.571
			c7.367,3.068,15.061,5.106,22.816,6.931c3.702,0.871,7.418,1.498,11.235,1.328c1.183-0.053,2.364-0.128,3.546-0.156
			c2.123-0.051,4.119-0.585,6.05-1.448c3.792-1.694,6.9-4.277,9.506-7.45c1.874-2.283,3.65-4.657,5.337-7.083
			c2.678-3.853,5.249-7.78,7.851-11.685c0.334-0.501,0.729-0.991,0.838-1.72c-2.161,0.247-4.091,0.633-5.388,2.574
			c-1.928,2.885-3.939,5.714-5.959,8.537c-1.719,2.405-3.396,4.853-5.277,7.127c-3.158,3.818-7.316,5.948-12.234,6.425
			c-1.987,0.193-4.016,0.064-6.02-0.033c-3.367-0.162-6.636-0.844-9.795-2.045c-3.4-1.293-6.614-2.968-9.793-4.714
			c-6.99-3.842-13.456-8.368-18.777-14.397C204.143,229.531,203.248,228.933,202.248,228.079z M108.756,360.895
			c0.645,0,1.076-0.021,1.506,0.004c2.949,0.172,5.926,0.137,8.805,0.922c4.948,1.35,9.959,2.393,15.025,3.178
			c2.295,0.355,4.557,0.943,6.907,0.891c2.366-0.053,4.735-0.016,7.099-0.102c1.414-0.051,2.824-0.248,4.234-0.404
			c1.092-0.121,1.623-0.776,1.834-1.846c0.49-2.471,1.027-4.933,1.595-7.387c0.154-0.67,0.075-1.247-0.267-1.808
			c-0.287-0.47-0.577-0.942-0.899-1.39c-1.336-1.851-2.642-3.727-4.04-5.53c-1.944-2.505-3.557-5.224-4.986-8.026
			c-1.734-3.401-3.244-6.918-4.819-10.398c-1.222-2.703-2.131-5.505-2.655-8.436c-0.201-1.119-0.572-2.211-0.918-3.299
			c-0.193-0.607-0.479-1.096-1.311-1.109c-0.506-0.008-1.047-0.344-1.502-0.639c-1.189-0.772-2.41-1.52-3.493-2.426
			c-3.415-2.863-6.829-5.729-10.134-8.716c-3.023-2.731-6.152-5.313-9.559-7.538c-1.543-1.01-3.131-2.054-4.844-2.682
			c-5.653-2.068-11.493-3.063-17.536-2.373c-0.978,0.111-1.977,0.189-2.915,0.457c-2.697,0.77-5.313,1.772-7.725,3.225
			c-5.16,3.106-9.568,7.036-13.161,11.9c-2.466,3.338-4.03,7.017-4.711,11.088c-0.208,1.243-0.381,2.493-0.518,3.746
			c-0.771,7.059,0.215,13.84,3.292,20.273c2.229,4.66,5.184,8.848,8.607,12.686c2.688,3.01,5.978,5.25,9.832,6.529
			c2.885,0.957,5.827,1.673,8.916,1.613c4.423-0.087,8.811-0.311,13.119-1.502c1.488-0.412,2.857-0.895,3.926-2.005
			c1.873-1.942,3.443-4.106,4.576-6.569c0.59-1.283,0.828-2.635,0.656-4.035c-0.24-1.954-0.447-3.916-0.813-5.849
			c-0.993-5.253-2.93-10.135-6.007-14.532c-0.382-0.548-0.788-1.102-1.278-1.547c-2.162-1.969-4.429-3.813-7.066-5.117
			c-0.689-0.34-1.479-0.584-2.243-0.651c-2.901-0.259-5.776-0.005-8.487,1.095c-4.688,1.9-6.393,4.693-5.811,9.596
			c0.347,2.931,1.813,5.42,3.947,7.504c1.664,1.626,3.57,2.688,5.905,2.959c0.741,0.086,1.471,0.28,2.201,0.443
			c0.192,0.043,0.368,0.156,0.552,0.236c-0.012,0.086-0.023,0.172-0.035,0.257c-0.852,0.031-1.707,0.132-2.553,0.079
			c-1.646-0.102-3.13-0.744-4.549-1.547c-3.268-1.85-5.662-4.396-6.419-8.197c-0.245-1.233-0.353-2.494-0.525-3.742
			c-0.208-1.499,0.296-2.771,1.149-3.979c4.218-5.964,12.16-7.485,18.021-4.377c4.688,2.487,8.418,5.954,10.388,11.042
			c0.256,0.66,0.582,1.294,0.846,1.951c1.54,3.842,3.071,7.658,3.345,11.889c0.223,3.441-0.048,6.682-1.934,9.663
			c-0.674,1.065-1.267,2.183-1.893,3.278C109.244,359.977,109.066,360.32,108.756,360.895z M167.527,407.647
			c0.084-0.056,0.168-0.111,0.252-0.166c0.324,0.423,0.699,0.817,0.963,1.276c0.669,1.16,1.271,2.359,1.932,3.525
			c1.154,2.031,2.515,3.906,4.189,5.553c0.869,0.854,1.779,1.131,2.857,0.49c1.419-0.842,2.9-1.607,4.215-2.592
			c1.924-1.441,3.717-3.053,5.58-4.576c0.393-0.32,0.816-0.628,1.273-0.842c0.765-0.359,1.059-0.24,1.598,0.43
			c0.9,1.119,1.953,2.104,3.268,2.672c1.807,0.779,3.678,1.407,5.521,2.096c0.58,0.217,1.037,0.04,1.247-0.533
			c0.282-0.773,0.597-1.558,0.72-2.364c0.462-3.003,0.256-5.967-0.681-8.874c-0.415-1.291-0.71-2.648-0.013-3.902
			c0.898-1.615,1.879-3.193,2.928-4.716c2.686-3.901,4.676-8.12,5.945-12.68c0.614-2.202,1.207-4.405,1.342-6.71
			c0.297-5.087-0.348-10.063-1.563-14.996c-0.574-2.33-1.478-4.479-2.81-6.465c-0.879-1.31-1.839-2.583-2.557-3.979
			c-0.872-1.693-2.145-3.012-3.484-4.287c-1.771-1.682-3.504-3.412-5.719-4.549c-6.252-3.209-12.822-3.936-19.652-2.5
			c-2.551,0.537-5.082,1.231-7.25,2.75c-2.934,2.054-5.466,4.574-7.377,7.59c-1.73,2.729-3.002,5.719-3.844,8.865
			c-0.948,3.547-1.699,7.134-2.041,10.791c-0.258,2.751-0.402,5.527,0.086,8.26c0.844,4.731,1.73,9.459,2.758,14.153
			c0.348,1.593,1.16,3.087,1.795,4.611c0.139,0.333,0.426,0.604,0.633,0.89c0.483-0.273,0.838-0.475,1.191-0.676
			c0.061,0.484-0.023,0.855-0.195,1.18c-0.275,0.521-0.611,1.013-0.917,1.52c-1.183,1.961-2.236,3.98-2.918,6.184
			c-0.354,1.143-0.086,2.064,0.669,2.948c0.883,1.034,2.021,1.491,3.324,1.568c1.85,0.109,3.703,0.179,5.556,0.221
			c0.485,0.011,0.976-0.138,1.593-0.233C167.781,408.836,167.654,408.242,167.527,407.647z M138.227,218.623
			c-0.434-0.07-0.857-0.095-1.255-0.21c-1.021-0.295-2.044-0.595-3.041-0.96c-0.729-0.268-1.427-0.631-2.128-0.971
			c-0.992-0.48-1.96-1.017-2.971-1.456c-0.889-0.387-1.363-0.12-1.473,0.836c-0.076,0.657-0.043,1.342,0.047,2
			c0.318,2.289,1.258,4.381,2.101,6.507c0.477,1.204,0.786,2.472,1.195,3.704c0.212,0.641-0.021,1.093-0.555,1.396
			c-0.886,0.503-1.79,0.975-2.694,1.443c-0.979,0.506-2.008,0.925-2.938,1.507c-1.209,0.757-1.32,1.668-0.361,2.762
			c0.672,0.769,1.439,1.46,2.201,2.145c2.332,2.096,4.426,4.412,6.069,7.074c2.111,3.42,4.079,6.929,6.108,10.4
			c0.298,0.51,0.557,1.047,0.893,1.529c3.902,5.575,8.281,10.747,13.148,15.503c0.564,0.551,1.161,1.073,1.693,1.654
			c3.127,3.416,7.016,5.705,11.18,7.584c0.787,0.354,1.592,0.74,2.43,0.898c3.627,0.691,7.279,0.984,10.904,0.009
			c4.033-1.084,7.528-3.002,9.843-6.654c0.866-1.366,1.774-2.704,2.634-4.074c1.177-1.878,2.193-3.833,2.7-6.014
			c0.401-1.728,0.845-3.447,1.192-5.186c1.145-5.724,0.514-11.154-2.834-16.086c-0.551-0.811-1.151-1.62-1.866-2.281
			c-4.251-3.928-9.322-6.466-14.747-8.264c-2.932-0.971-5.742-2.173-8.521-3.476c-2.307-1.081-4.219-2.742-6.259-4.229
			c-4.865-3.544-9.379-7.465-13.433-11.918c-0.609-0.669-1.27-1.302-1.969-1.875c-1.301-1.068-2.492-1.037-3.671,0.172
			c-0.651,0.668-1.229,1.452-1.665,2.277C139.473,215.713,138.903,217.133,138.227,218.623z M237.598,269.784
			c-1.944,0-3.754-0.038-5.562,0.006c-9.027,0.216-18.054,0.491-27.081,0.661c-2.873,0.054-5.752-0.134-8.626-0.246
			c-1.13-0.043-2.257-0.179-3.409-0.274c-1.726,4.407-4.822,7.714-8.055,10.955c0.492,0.568,0.884,1.063,1.32,1.515
			c2.775,2.881,5.146,6.076,7.268,9.455c1.299,2.068,2.523,4.184,3.745,6.299c2.524,4.367,5.022,8.748,7.533,13.123
			c0.313,0.547,0.643,1.084,0.954,1.633c0.442,0.779,1.113,1.217,1.997,1.293c1.647,0.145,3.298,0.371,4.946,0.377
			c8.17,0.025,16.313-0.413,24.405-1.6c1.23-0.181,2.442-0.502,3.753-0.775C242.451,297.777,241.033,283.725,237.598,269.784z
			 M243.34,353.504c-0.42-0.406-0.801-0.727-1.127-1.094c-0.839-0.942-1.613-1.945-2.49-2.852c-1.095-1.133-2.235-2.226-3.414-3.271
			c-0.672-0.598-0.951-0.548-1.655,0.023c-0.644,0.521-1.237,1.105-1.897,1.604c-2.83,2.142-5.73,4.171-8.837,5.915
			c-3.71,2.082-7.335,4.314-10.999,6.48c-0.475,0.279-0.953,0.556-1.439,0.818c-0.68,0.365-0.891,0.861-0.73,1.656
			c0.467,2.316,0.938,4.633,1.01,7.015c0.035,1.194,0.268,1.337,1.486,1.245c1.926-0.148,3.852-0.325,5.773-0.518
			c3.065-0.309,6.081-0.848,9.041-1.739c1.957-0.59,3.977-0.972,5.959-1.481c0.31-0.08,0.635-0.291,0.844-0.535
			c0.275-0.324,0.454-0.734,0.656-1.118c1.661-3.146,3.564-6.124,5.82-8.89c2.43-2.978,5.188-5.619,7.973-8.246
			c2.39-2.256,4.979-4.238,7.754-6c3.334-2.115,6.771-4.04,10.334-5.734c1.049-0.499,1.829-1.185,2.221-2.311
			c0.933-2.682,1.853-5.37,2.319-8.18c0.723-4.354,1.362-8.723,2.098-13.075c0.522-3.091,0.69-6.185,0.507-9.31
			c-0.275-4.688-0.432-9.382-0.783-14.063c-0.234-3.141-0.703-6.264-1.102-9.391c-0.071-0.564-0.307-1.108-0.537-1.9
			c-0.633,1-0.865,1.873-1.102,2.733c-1.414,5.129-2.755,10.278-4.234,15.387c-1.272,4.391-2.666,8.752-4.7,12.866
			c-0.31,0.628-0.027,1.054,0.204,1.536c3.33,6.982,5.613,14.297,6.977,21.904c0.07,0.396,0.07,0.803,0.104,1.205
			c-0.093,0.023-0.184,0.045-0.275,0.068c-0.162-0.379-0.361-0.745-0.478-1.137c-0.335-1.134-0.64-2.277-0.95-3.418
			c-1.701-6.242-3.584-12.422-6.358-18.291c-0.163-0.348-0.351-0.684-0.532-1.037c-6.225,0.949-12.363,1.887-18.467,2.818
			c-0.081,0.293-0.137,0.439-0.162,0.592c-1.143,7.043-2.222,14.096-3.45,21.123c-0.542,3.102-1.351,6.158-2.117,9.216
			c-0.208,0.83-0.078,1.37,0.636,1.798c0.166,0.1,0.315,0.235,0.466,0.362c1.991,1.694,3.794,3.566,5.31,5.7
			C243.266,352.366,243.686,352.758,243.34,353.504z M274.32,281.593c0.934-0.512,1.717-0.883,2.443-1.348
			c5.779-3.707,10.679-8.341,14.554-14.021c1.888-2.768,3.632-5.634,5.531-8.394c2.012-2.922,4.081-5.808,6.226-8.633
			c0.824-1.084,1.843-2.069,2.926-2.898c1.4-1.072,2.953-1.945,4.441-2.9c0.463-0.298,0.929-0.595,1.398-0.883
			c1.205-0.74,2.449-1.423,3.611-2.226c1.183-0.816,1.17-1.456,0.084-2.423c-0.204-0.181-0.429-0.361-0.676-0.467
			c-1.953-0.841-3.886-1.742-5.883-2.463c-1.191-0.431-1.743-1.164-1.752-2.351c-0.012-1.537,0.016-3.075,0.066-4.611
			c0.016-0.466,0.145-0.934,0.261-1.39c0.388-1.524,0.818-3.038,1.179-4.567c0.214-0.909-0.008-1.142-0.938-1.122
			c-0.352,0.008-0.715,0.048-1.049,0.15c-1.242,0.38-2.51,0.703-3.703,1.206c-5.413,2.283-10.955,4.207-16.537,6.024
			c-2.211,0.72-4.408,1.457-6.465,2.579c-2.838,1.551-5.215,3.488-7.094,6.24c-3.266,4.782-6.803,9.387-10.727,13.67
			c-0.285,0.31-0.545,0.642-0.684,0.806c1.542,2.729,3.072,5.258,4.422,7.878c1.698,3.295,2.945,6.787,4.256,10.254
			c1.324,3.503,2.713,6.976,3.63,10.615C273.937,280.688,274.109,281.038,274.32,281.593z M240.626,313.482
			c-0.843,0.053-1.552,0.072-2.257,0.147c-3.959,0.42-7.908,1.018-11.879,1.247c-6.496,0.374-13.006,0.531-19.511,0.729
			c-0.866,0.026-1.415,0.266-1.973,0.955c-4.632,5.725-9.802,10.906-15.651,15.402c-1.688,1.296-3.297,2.695-4.932,4.061
			c-0.352,0.294-0.654,0.646-1.101,1.092c0.56,0.153,0.927,0.273,1.302,0.354c1.771,0.381,3.568,0.666,5.313,1.143
			c3.188,0.873,6.119,2.26,8.607,4.516c4.172,3.783,7.531,8.171,9.975,13.242c0.475,0.986,0.747,2.068,1.146,3.094
			c0.163,0.419,0.414,0.805,0.678,1.303c0.734-0.402,1.357-0.724,1.961-1.074c4.602-2.674,9.201-5.352,13.799-8.031
			c2.595-1.512,5.043-3.236,7.359-5.146c0.628-0.519,1.23-1.066,1.934-1.678c0.219-0.668,0.506-1.48,0.75-2.307
			c0.277-0.944,0.59-1.887,0.76-2.852c1.176-6.717,2.352-13.435,3.45-20.164C240.672,317.582,240.779,315.61,240.626,313.482z
			 M154.066,349.98c0.137-0.426,0.264-0.746,0.344-1.078c0.674-2.796,1.303-5.602,2.016-8.387c0.683-2.672,1.336-5.359,2.205-7.971
			c1.058-3.176,2.373-6.264,3.492-9.42c1-2.819,1.922-5.672,1.805-8.73c-0.006-0.154,0.004-0.324,0.062-0.465
			c0.347-0.846,0.21-1.701,0.093-2.564c-0.85-6.285-2.621-12.324-4.921-18.215c-1.075-2.752-2.374-5.424-3.327-8.215
			c-1.028-3.014-1.799-6.117-2.623-9.198c-0.239-0.897-0.623-1.515-1.48-1.976c-1.102-0.593-2.16-1.315-3.115-2.125
			c-2.979-2.522-5.9-5.112-8.848-7.672c-0.341-0.296-0.707-0.562-1.146-0.909c-0.163,0.497-0.297,0.82-0.376,1.156
			c-0.729,3.106-1.493,6.201-1.796,9.396c-0.174,1.837-0.68,3.643-0.865,5.48c-0.459,4.519-0.572,9.055-0.291,13.589
			c0.168,2.712,0.535,5.411,0.729,8.123c0.421,5.871,1.332,11.664,2.654,17.394c0.842,3.646,1.752,7.278,3.356,10.692
			c1.207,2.567,2.36,5.16,3.547,7.736c0.121,0.264,0.312,0.493,0.505,0.789c0.206-0.188,0.346-0.273,0.428-0.396
			c1.108-1.676,2.234-3.342,3.305-5.042c3.666-5.819,7.59-11.434,12.64-16.17c0.291-0.273,0.604-0.524,0.988-0.854
			c-0.021,0.236,0.001,0.329-0.036,0.377c-0.336,0.438-0.658,0.89-1.029,1.297c-4.508,4.941-8.184,10.511-12.012,15.963
			c-0.995,1.418-1.84,2.939-2.813,4.375c-0.758,1.119-0.832,2.141-0.215,3.402c1.643,3.361,3.835,6.332,6.189,9.201
			C153.643,349.701,153.817,349.789,154.066,349.98z M238.54,269.478c0.075,0.548,0.077,0.864,0.167,1.154
			c1.049,3.361,1.593,6.828,2.114,10.295c0.792,5.268,1.427,10.551,1.401,15.89c-0.021,4.3-0.086,8.599-0.107,12.897
			c-0.012,2.256,0.066,2.281,2.346,2.07c5.43-0.506,10.71-1.868,16.074-2.75c0.586-0.098,0.836-0.418,1.056-0.949
			c0.481-1.163,1.071-2.28,1.609-3.42c0.219-0.463,0.472-0.917,0.62-1.402c1.381-4.522,2.789-9.037,4.094-13.58
			c1.174-4.09,2.207-8.221,3.346-12.319c0.228-0.813,0.186-1.567-0.107-2.31c-1.127-2.857-2.281-5.706-3.436-8.553
			c-0.117-0.29-0.292-0.558-0.453-0.828c-0.294-0.493-0.664-0.724-1.277-0.506c-0.554,0.196-1.142,0.303-1.721,0.418
			c-6.963,1.381-13.988,2.348-21.033,3.196C241.717,268.963,240.212,269.228,238.54,269.478z M193.515,269.155
			c0.521,0.063,0.829,0.124,1.138,0.134c4.65,0.138,9.301,0.358,13.951,0.38c5.164,0.025,10.33-0.194,15.496-0.196
			c7.708-0.004,15.345-0.833,22.967-1.84c2.733-0.361,5.461-0.787,8.174-1.28c3.402-0.618,6.893-0.8,10.171-2.055
			c0.853-0.327,1.013-0.496,0.778-1.347c-0.084-0.302-0.203-0.601-0.35-0.877c-1.403-2.646-2.805-5.293-4.233-7.925
			c-0.294-0.541-0.698-1.021-1.11-1.616c-1.27,0.707-2.469,1.303-3.594,2.014c-3.139,1.984-6.602,2.7-10.25,2.767
			c-6.729,0.123-13.213-1.433-19.706-2.891c-2.648-0.595-5.269-1.32-7.895-2.012c-0.759-0.2-1.509-0.451-2.235-0.747
			c-1.201-0.488-2.375-1.042-3.568-1.549c-2.211-0.938-4.445-1.821-6.637-2.799c-2.949-1.316-5.869-2.698-8.799-4.058
			c-1.213-0.564-2.441-1.104-3.623-1.729c-3.068-1.624-6.049-3.381-8.637-5.738c-0.697-0.635-1.478-1.182-2.234-1.749
			c-0.195-0.146-0.447-0.215-0.673-0.319c-0.067,0.056-0.134,0.11-0.2,0.166c0.16,0.319,0.263,0.691,0.495,0.944
			c0.315,0.343,0.723,0.605,1.104,0.883c2.294,1.67,4.596,3.331,6.887,5.006c0.963,0.704,1.863,1.494,2.356,2.605
			c0.733,1.653,1.53,3.297,2.062,5.018c1.069,3.462,1.52,7.027,0.828,10.624c-0.377,1.968-1.013,3.885-1.526,5.827
			C194.28,266.199,193.918,267.604,193.515,269.155z M169.238,283.771c0.211,0.482,0.338,0.852,0.523,1.188
			c1.409,2.553,2.789,5.123,4.256,7.641c1.874,3.215,3.445,6.556,4.494,10.129c0.789,2.687,1.521,5.381,1.592,8.213
			c0.151,6.131-1.131,11.984-3.393,17.639c-1.125,2.813-2.404,5.566-3.604,8.352c-0.147,0.341-0.233,0.707-0.365,1.119
			c2.036-0.207,3.946-0.498,5.864-0.568c1.796-0.066,3.273-0.707,4.619-1.832c3.176-2.654,6.344-5.318,9.564-7.917
			c3.016-2.433,5.799-5.106,8.453-7.916c1.324-1.401,2.512-2.933,3.767-4.401c0.42-0.49,0.478-0.944,0.005-1.457
			c-0.262-0.285-0.451-0.648-0.623-1.001c-2.186-4.466-4.844-8.663-7.308-12.972c-3.573-6.248-7.705-12.095-12.064-17.798
			c-0.819-1.071-0.926-1.146-2.162-0.567c-2.147,1.004-4.418,1.402-6.749,1.588C173.87,283.389,171.634,283.575,169.238,283.771z
			 M205.419,229.053c0.165,0.366,0.207,0.522,0.296,0.645c0.186,0.254,0.385,0.5,0.597,0.733c2.374,2.602,5.021,4.913,7.827,7.023
			c5.413,4.072,11.305,7.326,17.561,9.915c3.873,1.602,7.844,2.795,12.039,3.282c3.689,0.428,7.17-0.271,10.515-1.625
			c2.675-1.083,5.169-2.594,7.004-4.906c1.147-1.446,2.086-3.056,3.167-4.558c1.088-1.512,0.756-2.896-0.316-4.201
			c-0.442-0.539-0.982-1.023-1.553-1.43c-0.771-0.55-1.691-0.734-2.595-0.435c-1.01,0.335-1.931,0.171-2.872-0.194
			c-2.02-0.781-4.034-1.578-6.072-2.31c-3.195-1.148-6.439-2.08-9.873-2.229c-10.922-0.475-21.844-0.378-32.764,0.005
			C207.447,228.801,206.52,228.944,205.419,229.053z M154.521,275.474c0,0.506-0.016,0.702,0.002,0.895
			c0.033,0.353,0.074,0.706,0.132,1.056c0.56,3.454,1.761,6.706,3.247,9.848c1.453,3.072,2.711,6.211,3.625,9.484
			c0.889,3.186,1.867,6.352,2.626,9.569c0.765,3.247,0.583,6.586,0.581,9.899c-0.001,1.835-0.262,3.616-0.863,5.342
			c-0.932,2.681-1.852,5.365-2.854,8.02c-2.315,6.139-3.848,12.496-5.357,18.861c-0.238,1.012-0.303,2.032,0.035,3.036
			c0.188,0.558,0.444,1.08,1.147,1.334c0.251-0.381,0.541-0.712,0.71-1.097c0.85-1.943,2.185-3.553,3.483-5.189
			c1.573-1.986,3.355-3.77,5.292-5.395c1.252-1.051,2.688-1.787,4.263-2.236c0.562-0.16,1.03-0.399,1.198-1.011
			c0.862-3.134,2.37-6.007,3.631-8.979c1.313-3.094,2.432-6.244,2.894-9.592c0.167-1.209,0.145-2.471,0.491-3.625
			c0.529-1.762,0.509-3.531,0.248-5.268c-1.018-6.787-3.391-13.111-6.934-18.976c-1.309-2.165-2.623-4.317-3.519-6.684
			c-0.454-1.201-1.211-1.831-2.46-2.073c-1.596-0.311-3.093-0.905-4.413-1.905c-1.948-1.475-3.921-2.917-5.886-4.372
			C155.473,276.146,155.096,275.885,154.521,275.474z M181.219,234.418c0.07-2.083-0.102-3.869-1.461-5.369
			c-1.328-1.465-2.4-3.12-3.265-4.898c-0.772-1.591-1.503-3.203-2.243-4.809c-0.768-1.662-1.525-3.327-2.25-4.908
			c-0.855-0.36-1.442-0.087-1.953,0.397c-0.802,0.759-1.282,1.698-1.361,2.802c-0.139,1.943,0.039,3.835,0.799,5.67
			c0.902,2.177,1.725,4.387,2.541,6.598c0.229,0.619,0.654,0.959,1.212,1.199c2.349,1.008,4.698,2.013,7.05,3.013
			C180.533,234.217,180.795,234.281,181.219,234.418z M280.572,170.772c-0.76,0.307-0.951,0.821-1.008,1.38
			c-0.066,0.665-0.088,1.337-0.09,2.006c-0.018,4.385,1.608,8.313,3.451,12.167c0.246,0.515,0.675,0.981,1.116,1.355
			c0.671,0.566,1.325,0.443,1.594-0.378c0.612-1.872,1.134-3.768,0.324-5.754c-0.55-1.348-1.063-2.719-1.452-4.119
			c-0.549-1.977-1.566-3.691-2.723-5.34C281.437,171.592,280.96,171.187,280.572,170.772z M278.85,177.587
			c-0.1,0.007-0.199,0.014-0.299,0.021c-0.122,2.242,0.076,4.471,0.365,6.695c0.364,2.809,0.828,5.61,1.074,8.431
			c0.27,3.096,0.342,6.21,0.504,9.316c0.027,0.514-0.057,1.061,0.427,1.704c0.351-1.145,0.585-2.12,0.948-3.045
			c0.408-1.041,1.348-1.584,2.266-1.963c-0.431-1.233-0.932-2.312-1.18-3.447c-0.512-2.343-0.986-4.703-1.293-7.08
			c-0.315-2.446-0.931-4.778-1.931-7.025c-0.235-0.532-0.354-1.12-0.49-1.691C279.09,178.868,278.979,178.226,278.85,177.587z
			 M161.965,224.979c1.357,1.763,6.834,4.974,9.074,5.097c0.018-0.698-2.987-8.971-3.762-10.313
			C165.477,221.466,163.59,223.052,161.965,224.979z M262.594,232.371c0.761,0.656,1.51,1.182,2.102,1.848
			c0.58,0.651,0.998,1.446,1.562,2.289c0.722-0.963,1.428-1.902,2.132-2.842c0.686-0.915,1.363-1.837,2.059-2.745
			c0.697-0.914,1.502-1.751,2.207-2.836C270.83,228.257,264.275,231.061,262.594,232.371z M286.277,203.278
			c-0.148-1.121-0.285-2.171-1.074-3.003c-0.858-0.907-1.924-0.876-2.592,0.155c-1.145,1.769-1.415,4.156,0.584,6.018
			c0.928,0.864,1.85,0.718,2.346-0.461C285.899,205.132,286.039,204.185,286.277,203.278z M140.078,259.704
			c-0.768,1.562-0.688,2.387,0.314,3.512c0.365,0.412,0.729,0.836,1.145,1.193c2.665,2.281,5.344,4.545,8.022,6.81
			c0.101,0.086,0.249,0.116,0.376,0.171c-0.087-0.477-0.319-0.809-0.588-1.108c-1.633-1.817-3.311-3.594-4.897-5.45
			c-0.997-1.166-1.847-2.457-2.796-3.666C141.229,260.625,140.891,259.963,140.078,259.704z M287.857,197.071
			c-0.205,0.506-0.328,1.069-0.635,1.503c-0.322,0.457-0.818,0.79-1.201,1.142c0.428,1.049,0.857,2.105,1.39,3.414
			C288.061,200.985,288.053,199.029,287.857,197.071z M281.782,206.693c0.09-0.052,0.18-0.104,0.269-0.157
			c-0.227-0.444-0.455-0.888-0.684-1.333c-0.084,0.042-0.168,0.084-0.252,0.126C281.338,205.785,281.56,206.239,281.782,206.693z"/>
		<path fill-rule="evenodd" clip-rule="evenodd" fill="#FFFFFF" d="M281.782,206.693c-0.223-0.454-0.444-0.908-0.667-1.363
			c0.084-0.042,0.168-0.084,0.252-0.126c0.229,0.444,0.457,0.889,0.684,1.333C281.962,206.588,281.872,206.641,281.782,206.693z"/>
		<path fill-rule="evenodd" clip-rule="evenodd" fill="#FFFFFF" d="M211.154,212.084c-2.32-0.129-4.644-0.231-6.961-0.396
			c-2.86-0.203-4.596-1.823-5.471-4.478c-0.721-2.194-0.916-4.477-1.074-6.754c-0.27-3.898-0.326-7.798,0.172-11.69
			c0.66-5.148,2.43-9.838,5.629-13.967c1.771-2.288,4.096-3.375,6.957-3.388c0.392-0.001,0.813-0.027,1.172,0.099
			c2.5,0.879,4.703,2.126,6.131,4.527c2.717,4.57,4.436,9.47,5.222,14.717c0.509,3.394,1.015,6.788,0.919,10.231
			c-0.066,2.376-0.283,4.736-1.615,6.815c-0.444,0.695-0.91,1.384-1.438,2.018c-1.144,1.378-2.62,2.111-4.434,2.111
			c-1.734,0-3.469,0-5.204,0C211.157,211.982,211.155,212.033,211.154,212.084z M221.498,189.082
			c-0.333,0.483-0.5,0.795-0.732,1.046c-0.289,0.313-0.595,0.642-0.959,0.845c-1.286,0.715-1.298,0.696-1.135,2.157
			c0.031,0.274,0.078,0.546,0.115,0.819c0.428,3.138-0.064,6.116-1.529,8.933c-0.434,0.835-1.066,1.436-1.881,1.896
			c-2.186,1.23-4.489,0.974-6.786,0.529c-0.603-0.117-1.032-0.115-1.501,0.301c-0.497,0.441-1.053,0.825-1.615,1.18
			c-0.49,0.309-0.635,0.682-0.383,1.191c0.332,0.67,0.678,1.331,1.025,1.992c0.381,0.723,1.012,1.091,1.805,1.167
			c0.587,0.056,1.18,0.088,1.77,0.073c2.166-0.056,4.332-0.199,6.498-0.189c2.118,0.01,3.582-0.997,4.699-2.672
			c0.75-1.126,1.316-2.339,1.512-3.687c0.693-4.763,0.556-9.505-0.445-14.216C221.871,190.046,221.696,189.666,221.498,189.082z
			 M221.07,186.586c-0.068-0.356-0.1-0.92-0.285-1.428c-0.924-2.507-1.834-5.021-2.856-7.487c-0.627-1.513-1.732-2.718-3.038-3.705
			c-0.497-0.375-1.053-0.701-1.629-0.938c-1.406-0.581-2.486-0.109-3.006,1.325c-0.211,0.583-0.328,1.222-0.359,1.842
			c-0.178,3.569,0.836,6.838,2.602,9.9c0.855,1.486,1.996,2.723,3.375,3.744c2.27,1.678,4.722,0.504,5.13-2.235
			C221.043,187.333,221.04,187.055,221.07,186.586z M202.649,178.069c-0.079-0.03-0.158-0.061-0.237-0.092
			c-0.191,0.318-0.411,0.623-0.571,0.956c-0.374,0.781-0.78,1.555-1.067,2.369c-0.705,2.001-1.701,3.98-1.949,6.044
			c-0.636,5.291-0.51,10.622,0.121,15.921c0.139,1.163,0.443,2.323,0.811,3.438c0.547,1.657,1.749,2.784,3.294,3.539
			c0.786,0.385,1.626,0.5,2.599,0.307c-0.635-1.356-1.651-2.443-1.992-3.928c0.383-0.086,0.612-0.125,0.834-0.19
			c1.696-0.502,3.518-2.853,3.57-4.62c0.021-0.727-0.017-1.432-0.826-1.794c-0.863-0.385-1.703-0.429-2.414,0.262
			c-0.416,0.406-0.727,0.923-1.084,1.391c-0.227,0.295-0.453,0.592-0.836,1.091c-1.064-2.136-1.103-4.233-1.32-6.271
			c-0.219-2.035-0.409-4.085-0.409-6.128c-0.001-2.081,0.156-4.172,0.409-6.239C201.828,182.092,202.284,180.086,202.649,178.069z"
			/>
		<path fill-rule="evenodd" clip-rule="evenodd" fill="#FFFFFF" d="M250.613,221.232c1.365-0.272,1.977,0.534,2.635,1.161
			c0.556,0.528,1.158,1.098,0.846,2.199C252.539,223.867,251.49,222.781,250.613,221.232z"/>
		<path fill-rule="evenodd" clip-rule="evenodd" fill="#FFFFFF" d="M214.434,167.092c1.703-0.163,4.201,1.368,4.91,2.91
			c-0.206,0.014-0.438,0.104-0.557,0.025C217.369,169.092,215.969,168.133,214.434,167.092z"/>
		<path fill-rule="evenodd" clip-rule="evenodd" fill="#FFFFFF" d="M264.494,223.552c-0.604-0.877-0.229-1.615,0.176-2.318
			c0.331-0.578,0.723-1.141,1.705-0.975C266.016,221.548,265.395,222.606,264.494,223.552z"/>
		<path fill-rule="evenodd" clip-rule="evenodd" fill="#FFFFFF" d="M276.697,168.821c-0.075-0.894,0.387-1.356,0.965-1.755
			C277.583,167.736,277.298,168.294,276.697,168.821z"/>
		<path fill-rule="evenodd" clip-rule="evenodd" fill="#FFFFFF" d="M297.904,240.434c0.738-1.245,1.512-2.47,2.201-3.74
			c0.449-0.825,0.844-1.693,1.143-2.583c0.459-1.363,0.203-1.778-1.258-1.961c-1.403-0.176-2.823-0.219-4.236-0.315
			c-1.25-0.084-2.501-0.161-3.846-0.248c0.311-0.625,0.799-0.681,1.244-0.684c2.398-0.02,4.801-0.069,7.196,0.022
			c1.522,0.058,2.319,1.197,1.975,2.69c-0.589,2.55-1.851,4.746-3.71,6.59c-0.159,0.158-0.369,0.265-0.555,0.396
			C298.008,240.545,297.956,240.489,297.904,240.434z"/>
	</g>
</g>
</svg>
